<?xml version="1.0" encoding="UTF-8"?>
<svg version="1.1" xmlns="http://www.w3.org/2000/svg" width="639" height="640">
<path d="M0 0 C1.52619461 0.00456207 1.52619461 0.00456207 3.08322144 0.00921631 C18.24090851 0.07627715 32.74288741 0.68830318 47.5 4.4375 C48.38751953 4.65180664 49.27503906 4.86611328 50.18945312 5.08691406 C88.29538154 14.44315882 121.27170881 35.53089778 145.5 66.4375 C146.12648438 67.22543945 146.12648438 67.22543945 146.765625 68.02929688 C191.48596542 124.67057141 203.3553777 204.40335014 208.5 274.4375 C208.55784668 275.18837891 208.61569336 275.93925781 208.67529297 276.71289062 C211.6854591 317.12236122 209.66267808 358.60807167 197.5 397.4375 C197.28150391 398.14100586 197.06300781 398.84451172 196.83789062 399.56933594 C191.46315791 416.37984611 183.03418589 433.12897148 171.75390625 446.71875 C170.0190936 448.81134896 168.42705895 450.89418176 166.85913086 453.10742188 C166.41540634 453.7325769 165.97168182 454.35773193 165.51451111 455.00183105 C165.01232811 455.71248718 165.01232811 455.71248718 164.5 456.4375 C165.36427109 456.67695847 166.22854218 456.91641693 167.1190033 457.16313171 C175.3404042 459.441244 183.56144273 461.72065864 191.78209591 464.0014677 C196.00647481 465.17346842 200.23098296 466.34499849 204.45581055 467.51538086 C208.54752645 468.64890792 212.63887139 469.78376535 216.72998238 470.91947365 C218.2760206 471.34842298 219.82218288 471.77692549 221.36848259 472.20493126 C226.41616891 473.60230446 231.45963909 475.01393958 236.5 476.4375 C237.63647917 476.7566506 237.63647917 476.7566506 238.79591751 477.08224869 C241.08537902 477.72763161 243.37216864 478.38177093 245.65844727 479.03833008 C246.34454795 479.23080417 247.03064863 479.42327826 247.73754025 479.62158489 C273.80879921 487.18594657 290.61125829 510.1078761 303.375 532.6875 C313.05682367 550.32534926 320.98180563 568.92345216 328.78970337 587.44854736 C329.46817122 589.05812454 330.14911697 590.66665963 330.83261108 592.27410889 C331.79002336 594.53168709 332.73481481 596.79411963 333.67578125 599.05859375 C333.96260773 599.73136856 334.2494342 600.40414337 334.54495239 601.0973053 C335.9994891 604.643216 337.0692731 607.5959734 336.5 611.4375 C334.63903729 613.42029333 332.93520901 614.97180265 330.8125 616.625 C330.22670166 617.09768311 329.64090332 617.57036621 329.03735352 618.05737305 C327.81018941 619.04241789 326.57723281 620.02028577 325.33886719 620.99121094 C323.59622264 622.36181985 321.8784657 623.758395 320.1640625 625.1640625 C311.90985296 631.83556248 302.02258374 639.53967316 290.99644089 639.5761652 C290.06790259 639.58163964 289.1393643 639.58711409 288.18268847 639.59275442 C287.16049881 639.59373253 286.13830915 639.59471064 285.08514404 639.59571838 C283.99997096 639.60065636 282.91479788 639.60559434 281.79674077 639.61068195 C278.1389095 639.62610828 274.48109588 639.63443304 270.82324219 639.64282227 C268.20583949 639.65240026 265.58843834 639.66241029 262.97103882 639.67282104 C256.5714942 639.69747836 250.17194371 639.71686729 243.77237651 639.73457379 C236.2625917 639.75557834 228.75282896 639.78203202 221.24306265 639.80874526 C207.76687097 639.85651811 194.29066852 639.89970502 180.81445312 639.94018555 C167.8788959 639.97904912 154.94335081 640.02045518 142.0078125 640.06518555 C140.82580919 640.06927196 140.82580919 640.06927196 139.61992702 640.07344092 C136.44772046 640.084414 133.27551391 640.09539305 130.10330741 640.10638306 C116.87269981 640.15214706 103.64208517 640.19582405 90.41146946 640.2391727 C87.44813038 640.24888315 84.48479155 640.25866158 81.5214529 640.26850247 C46.14790634 640.38581259 10.77495299 640.45379943 -24.59879851 640.44093293 C-38.83601496 640.43588332 -53.07313234 640.44605304 -67.31033182 640.46766865 C-89.52376912 640.50125163 -111.73697268 640.49665127 -133.95040894 640.46084595 C-146.57870677 640.44150241 -159.2066768 640.43789682 -171.83496094 640.46826172 C-183.04466739 640.49516753 -194.25396251 640.49398909 -205.46365356 640.45924091 C-211.34154825 640.4419643 -217.21870018 640.4380962 -223.09655762 640.46853638 C-228.58068957 640.49654487 -234.06349087 640.48679417 -239.5475502 640.44876289 C-241.54409646 640.44139983 -243.54074873 640.44742386 -245.53719711 640.46851921 C-262.25703596 640.63250317 -273.96426827 636.60887421 -286.375 625 C-286.98794922 624.4421582 -287.60089844 623.88431641 -288.23242188 623.30957031 C-289.44087418 622.20362634 -290.64335452 621.09111038 -291.83886719 619.97119141 C-293.34733626 618.57845145 -294.90949115 617.24442678 -296.4765625 615.91796875 C-297.30929687 615.18191406 -298.14203125 614.44585938 -299 613.6875 C-299.7115625 613.07390625 -300.423125 612.4603125 -301.15625 611.828125 C-303.75283826 607.20861333 -301.82086263 601.23875808 -300.44360352 596.32421875 C-300.01422749 594.9217371 -299.57563006 593.52205275 -299.12890625 592.125 C-298.89112961 591.36159805 -298.65335297 590.59819611 -298.40837097 589.81166077 C-297.63688588 587.35015201 -296.8512372 584.89353103 -296.0625 582.4375 C-295.79433472 581.59557098 -295.52616943 580.75364197 -295.24987793 579.88619995 C-283.22634049 542.22707582 -268.63528414 505.70316065 -232.35256577 485.37940598 C-226.83245607 482.57279883 -220.79143892 481.01518351 -214.86328125 479.31640625 C-213.40640898 478.88353464 -211.95005243 478.44892396 -210.4941864 478.01268005 C-206.71047843 476.88360796 -202.92064616 475.77677137 -199.12884521 474.67523193 C-195.24942102 473.5443508 -191.37582762 472.39386192 -187.50195312 471.24414062 C-183.15525217 469.95417903 -178.80820263 468.66582283 -174.45588684 467.39491272 C-173.79977417 467.20276184 -173.1436615 467.01061096 -172.46766663 466.81263733 C-170.69837669 466.29484484 -168.92853078 465.77895317 -167.15864563 465.26319885 C-164.55909277 464.53446571 -164.55909277 464.53446571 -162.5 463.4375 C-163.07331055 463.17646484 -163.64662109 462.91542969 -164.23730469 462.64648438 C-179.7403956 455.54478769 -193.10586134 448.36508353 -205.5 436.4375 C-206.31855469 435.65890625 -207.13710937 434.8803125 -207.98046875 434.078125 C-212.07501359 430.09713197 -215.41452555 426.2732548 -218.5 421.4375 C-217.60861328 421.41562622 -217.60861328 421.41562622 -216.69921875 421.39331055 C-213.96554366 421.31811322 -211.23299583 421.22169478 -208.5 421.125 C-207.56542969 421.10244141 -206.63085938 421.07988281 -205.66796875 421.05664062 C-198.80535637 420.79269399 -192.51620368 420.1276276 -187.1875 415.375 C-184.83279416 411.27606761 -183.66887644 406.99788912 -182.5 402.4375 C-183.07943359 402.60282227 -183.65886719 402.76814453 -184.25585938 402.93847656 C-197.16905091 405.80994779 -213.80399661 401.75105803 -224.90625 395.2109375 C-238.90418241 385.64006202 -245.6726642 370.44606803 -249.5 354.4375 C-249.5 353.1175 -249.5 351.7975 -249.5 350.4375 C-248.17162109 350.4689209 -248.17162109 350.4689209 -246.81640625 350.50097656 C-223.80708834 351.32786771 -223.80708834 351.32786771 -201.5 346.4375 C-203.70403936 346.40754045 -203.70403936 346.40754045 -206.703125 346.7265625 C-229.06273164 348.67696809 -249.14287545 341.9289339 -268.67822266 331.40478516 C-271.91942438 329.6838469 -275.21279879 328.06844362 -278.5 326.4375 C-278.5 325.7775 -278.5 325.1175 -278.5 324.4375 C-277.61985229 324.41562622 -277.61985229 324.41562622 -276.72192383 324.39331055 C-245.70145042 323.54108319 -211.2288775 320.6651096 -187.3515625 298.4375 C-175.94665255 286.08633115 -172.34821214 271.45582715 -170.5625 255.125 C-170.40099386 253.74438102 -170.23802543 252.36393246 -170.07373047 250.98364258 C-169.72308179 248.0261747 -169.37827751 245.06812012 -169.03857422 242.109375 C-152.06134761 94.46778918 -152.06134761 94.46778918 -104.44140625 43.53515625 C-102.35319134 41.33988584 -102.35319134 41.33988584 -100.125 38.375 C-96.05370762 33.81902996 -91.32199585 30.17044645 -86.5 26.4375 C-85.72785156 25.83808594 -84.95570313 25.23867188 -84.16015625 24.62109375 C-73.41570463 16.70509606 -61.55039532 10.83279817 -48.9375 6.5625 C-47.73613403 6.15161133 -47.73613403 6.15161133 -46.51049805 5.73242188 C-31.03068331 0.7630977 -16.12753789 -0.10191229 0 0 Z " fill="#FED39A" transform="translate(302.5,-0.4375)"/>
<path d="M0 0 C1.52619461 0.00456207 1.52619461 0.00456207 3.08322144 0.00921631 C18.24090851 0.07627715 32.74288741 0.68830318 47.5 4.4375 C48.38751953 4.65180664 49.27503906 4.86611328 50.18945312 5.08691406 C88.29538154 14.44315882 121.27170881 35.53089778 145.5 66.4375 C146.12648438 67.22543945 146.12648438 67.22543945 146.765625 68.02929688 C191.48596542 124.67057141 203.3553777 204.40335014 208.5 274.4375 C208.55784668 275.18837891 208.61569336 275.93925781 208.67529297 276.71289062 C211.6854591 317.12236122 209.66267808 358.60807167 197.5 397.4375 C197.28150391 398.14100586 197.06300781 398.84451172 196.83789062 399.56933594 C191.05547745 417.65494513 181.7716553 434.97684673 169.5 449.4375 C168.95988281 450.21867187 168.41976563 450.99984375 167.86328125 451.8046875 C166.4375 453.8125 166.4375 453.8125 163.5 456.4375 C156.24463723 456.17826739 149.4965824 454.26392753 142.53515625 452.3125 C140.86337563 451.85206299 140.86337563 451.85206299 139.15782166 451.38232422 C136.81811382 450.73660175 134.4793029 450.08762142 132.14135742 449.43554688 C128.55122985 448.43435706 124.95852636 447.44289112 121.36523438 446.453125 C119.08838703 445.82347556 116.81168886 445.19328642 114.53515625 444.5625 C113.45814957 444.26456543 112.38114288 443.96663086 111.27149963 443.65966797 C109.78371254 443.24418701 109.78371254 443.24418701 108.26586914 442.8203125 C107.39144669 442.57684082 106.51702423 442.33336914 105.61610413 442.08251953 C103.5 441.4375 103.5 441.4375 101.5 440.4375 C101.26091919 441.42405075 101.02183838 442.4106015 100.7755127 443.42704773 C98.50968057 452.68680713 95.98873119 461.83321612 93.21875 470.95703125 C92.8081664 472.31962338 92.39793994 473.68232316 91.98803711 475.04512024 C91.11626682 477.94113635 90.24228558 480.83647145 89.36645508 483.73126221 C87.97148105 488.34228015 86.58190846 492.95491487 85.19335938 497.56787109 C84.71570485 499.15454301 84.23804368 500.74121292 83.76037598 502.32788086 C83.52208572 503.11942566 83.28379547 503.91097046 83.0382843 504.72650146 C82.30921924 507.14761363 81.57966783 509.56857874 80.84997559 511.98950195 C76.08413593 527.80307677 71.35150782 543.62650282 66.62937927 559.45317841 C66.00162311 561.55706024 65.37369415 563.66089044 64.74572754 565.76470947 C57.6190314 589.64241116 50.53659402 613.53308402 43.5 637.4375 C41.85 637.4375 40.2 637.4375 38.5 637.4375 C37.14252589 634.72255178 37.83088403 633.64963792 38.6875 630.765625 C38.97044922 629.80277588 39.25339844 628.83992676 39.54492188 627.84790039 C39.86009766 626.80496826 40.17527344 625.76203613 40.5 624.6875 C40.82033203 623.60782959 41.14066406 622.52815918 41.47070312 621.41577148 C43.81561366 613.56479533 46.29791092 605.76160641 48.81971169 597.96605492 C50.95300491 591.30788735 52.88264646 584.61044366 54.73583984 577.86962891 C58.39726103 564.68174043 62.28771404 551.56818725 66.2265625 538.4609375 C66.94458083 536.06641561 67.66246321 533.67185295 68.38021851 531.2772522 C69.86950699 526.31052705 71.36041543 521.34429207 72.85253906 516.37841797 C74.75287718 510.05350206 76.64905407 503.72734747 78.54403114 497.40082359 C80.01972817 492.47578162 81.49762935 487.55140314 82.97617722 482.62721634 C83.6760807 480.29530581 84.3753192 477.96319557 85.07384109 475.63087082 C88.70708552 463.50412698 92.37804285 451.4084987 96.5 439.4375 C98.48 439.4375 100.46 439.4375 102.5 439.4375 C102.38054877 435.32968356 102.25624038 431.22204382 102.12768555 427.11450195 C102.08472646 425.72098651 102.04302945 424.3274315 102.00268555 422.93383789 C101.80408914 416.10065057 101.59431083 409.30772808 100.73852539 402.51977539 C100.06600546 396.64882092 99.94769479 390.71815425 99.73828125 384.81640625 C99.61825539 381.48228887 99.38483174 378.21338915 98.98046875 374.90234375 C98.03473136 365.48240302 98.03473136 365.48240302 100.71582031 361.74072266 C104.79167661 357.43900351 109.64650307 354.07507384 114.7734375 351.1328125 C117.47803412 348.47716785 118.02620492 345.20273713 118.875 341.625 C119.18135376 340.39221313 119.18135376 340.39221313 119.49389648 339.13452148 C130.41186375 294.00828904 139.82233935 242.4730039 128.5 196.4375 C128.29101074 195.5722168 128.08202148 194.70693359 127.86669922 193.81542969 C117.84483376 153.77300996 91.28352926 121.62556756 56.37524414 100.35766602 C47.47694944 94.23125373 47.47694944 94.23125373 37.5 91.4375 C36.04248075 93.00176033 36.04248075 93.00176033 34.7265625 95.17578125 C34.16437012 96.0361499 33.60217773 96.89651855 33.02294922 97.78295898 C32.39662598 98.76208252 31.77030273 99.74120605 31.125 100.75 C29.68419898 102.95700635 28.24136816 105.16260343 26.796875 107.3671875 C26.39560394 107.981884 25.99433289 108.59658051 25.5809021 109.22990417 C20.23066929 117.41138834 14.73480506 125.4951059 9.25744629 133.59173584 C-1.2857758 149.18026676 -11.78095627 164.79977474 -22.18408203 180.48217773 C-26.54364743 187.0493068 -30.93357192 193.59589321 -35.3671875 200.11328125 C-35.82022247 200.78578415 -36.27325745 201.45828705 -36.74002075 202.15116882 C-39.0831747 205.57836233 -41.42283807 208.61132496 -44.5 211.4375 C-44.55534912 210.2822583 -44.61069824 209.1270166 -44.66772461 207.93676758 C-44.87454484 203.64084182 -45.086314 199.34517171 -45.29956055 195.04956055 C-45.39107587 193.19220451 -45.48125832 191.33478228 -45.57006836 189.47729492 C-45.69813252 186.80368733 -45.8310262 184.1303563 -45.96484375 181.45703125 C-46.00343002 180.62976028 -46.0420163 179.80248932 -46.08177185 178.95014954 C-46.28299955 175.02069504 -46.57443133 171.27877949 -47.5 167.4375 C-49.5631792 171.01201549 -51.62615964 174.58664562 -53.68896484 178.16137695 C-54.38910701 179.37462377 -55.08930122 180.58784056 -55.78955078 181.80102539 C-59.37133465 188.00655536 -62.9530136 194.21199036 -66.5 200.4375 C-68.93549343 199.35505848 -70.71580961 198.25166395 -72.75 196.5 C-78.72591695 192.01806228 -84.96342974 190.85290514 -92.25 190.875 C-93.03133301 190.8759668 -93.81266602 190.87693359 -94.61767578 190.87792969 C-101.84427064 191.094891 -107.58780535 193.21173464 -113.5 197.4375 C-114.26570312 197.93765625 -115.03140625 198.4378125 -115.8203125 198.953125 C-117.78616407 201.86075663 -117.69532395 202.96913438 -117.6394043 206.41235352 C-117.62397583 207.39916107 -117.60854736 208.38596863 -117.59265137 209.40267944 C-117.45081257 214.04864771 -117.2274184 218.68451897 -116.94921875 223.32421875 C-116.8908786 224.33195847 -116.83253845 225.33969818 -116.77243042 226.37797546 C-116.58213021 229.62728219 -116.38573654 232.87616825 -116.1875 236.125 C-116.11997528 237.23909241 -116.05245056 238.35318481 -115.98287964 239.5010376 C-114.03785842 271.35229588 -111.14784217 302.94459023 -105.4375 334.375 C-105.28740479 335.22731201 -105.13730957 336.07962402 -104.98266602 336.95776367 C-103.48345727 344.80107721 -99.89674739 349.37345748 -94.5 355.0625 C-93.90276123 355.69696045 -93.30552246 356.3314209 -92.69018555 356.98510742 C-87.31482584 362.65580909 -81.82625453 368.21416522 -76.3125 373.75 C-75.48685547 374.58031738 -74.66121094 375.41063477 -73.81054688 376.26611328 C-73.03388672 377.04067871 -72.25722656 377.81524414 -71.45703125 378.61328125 C-70.76585205 379.30333252 -70.07467285 379.99338379 -69.36254883 380.7043457 C-67.41289133 382.61165165 -67.41289133 382.61165165 -64.5 384.4375 C-64.12768555 386.81323242 -64.12768555 386.81323242 -64.13671875 389.79296875 C-64.13583252 390.88351562 -64.13494629 391.9740625 -64.1340332 393.09765625 C-64.16049927 394.84369141 -64.16049927 394.84369141 -64.1875 396.625 C-64.1980542 397.80578125 -64.2086084 398.9865625 -64.21948242 400.203125 C-64.61915197 426.56323086 -64.61915197 426.56323086 -69.5 435.4375 C-73.43363894 438.19659132 -77.62031193 439.5978625 -82.17675781 440.96533203 C-82.93356339 441.19824951 -83.69036896 441.43116699 -84.47010803 441.67114258 C-86.96240258 442.43607756 -89.45758046 443.19105383 -91.953125 443.9453125 C-93.69572811 444.47635285 -95.43821912 445.00776115 -97.18060303 445.53952026 C-100.8308074 446.65176557 -104.48248945 447.75898552 -108.13525391 448.86279297 C-112.79959888 450.27280451 -117.4597916 451.69601595 -122.11891556 453.12317085 C-125.71701594 454.22354422 -129.31737044 455.31638744 -132.91841888 456.40707016 C-134.63661206 456.92853536 -136.35408011 457.45239636 -138.07077789 457.97876358 C-140.48014941 458.71637061 -142.89242 459.44363586 -145.30566406 460.16845703 C-146.0041597 460.38456635 -146.70265533 460.60067566 -147.4223175 460.82333374 C-153.99629555 462.77609149 -161.13376679 464.79605528 -167.55078125 461.62890625 C-168.40824951 461.21568115 -169.26571777 460.80245605 -170.14916992 460.37670898 C-171.02806885 459.92239502 -171.90696777 459.46808105 -172.8125 459 C-173.73458252 458.53988525 -174.65666504 458.07977051 -175.60668945 457.60571289 C-186.82771232 451.90490829 -196.40952085 445.18578436 -205.5 436.4375 C-206.31855469 435.65890625 -207.13710937 434.8803125 -207.98046875 434.078125 C-212.07501359 430.09713197 -215.41452555 426.2732548 -218.5 421.4375 C-217.60861328 421.41562622 -217.60861328 421.41562622 -216.69921875 421.39331055 C-213.96554366 421.31811322 -211.23299583 421.22169478 -208.5 421.125 C-207.56542969 421.10244141 -206.63085938 421.07988281 -205.66796875 421.05664062 C-198.80535637 420.79269399 -192.51620368 420.1276276 -187.1875 415.375 C-184.83279416 411.27606761 -183.66887644 406.99788912 -182.5 402.4375 C-183.07943359 402.60282227 -183.65886719 402.76814453 -184.25585938 402.93847656 C-197.16905091 405.80994779 -213.80399661 401.75105803 -224.90625 395.2109375 C-238.90418241 385.64006202 -245.6726642 370.44606803 -249.5 354.4375 C-249.5 353.1175 -249.5 351.7975 -249.5 350.4375 C-248.17162109 350.4689209 -248.17162109 350.4689209 -246.81640625 350.50097656 C-223.80708834 351.32786771 -223.80708834 351.32786771 -201.5 346.4375 C-203.70403936 346.40754045 -203.70403936 346.40754045 -206.703125 346.7265625 C-229.06273164 348.67696809 -249.14287545 341.9289339 -268.67822266 331.40478516 C-271.91942438 329.6838469 -275.21279879 328.06844362 -278.5 326.4375 C-278.5 325.7775 -278.5 325.1175 -278.5 324.4375 C-277.61985229 324.41562622 -277.61985229 324.41562622 -276.72192383 324.39331055 C-245.70145042 323.54108319 -211.2288775 320.6651096 -187.3515625 298.4375 C-175.94665255 286.08633115 -172.34821214 271.45582715 -170.5625 255.125 C-170.40099386 253.74438102 -170.23802543 252.36393246 -170.07373047 250.98364258 C-169.72308179 248.0261747 -169.37827751 245.06812012 -169.03857422 242.109375 C-152.06134761 94.46778918 -152.06134761 94.46778918 -104.44140625 43.53515625 C-102.35319134 41.33988584 -102.35319134 41.33988584 -100.125 38.375 C-96.05370762 33.81902996 -91.32199585 30.17044645 -86.5 26.4375 C-85.72785156 25.83808594 -84.95570313 25.23867188 -84.16015625 24.62109375 C-73.41570463 16.70509606 -61.55039532 10.83279817 -48.9375 6.5625 C-47.73613403 6.15161133 -47.73613403 6.15161133 -46.51049805 5.73242188 C-31.03068331 0.7630977 -16.12753789 -0.10191229 0 0 Z " fill="#A06B09" transform="translate(302.5,-0.4375)"/>
<path d="M0 0 C12.45364306 2.83910862 24.76160478 6.06093949 37.0625 9.5 C39.63641857 10.21810986 42.21062491 10.93513323 44.7855072 11.64978027 C46.36581407 12.08851591 47.94560687 12.52911123 49.52467346 12.97229004 C54.50907755 14.35778473 59.51641329 15.63545185 64.5378418 16.87915039 C73.09334428 19.00119134 81.60362526 21.27739201 90.109375 23.58984375 C90.88510109 23.80058596 91.66082718 24.01132816 92.46006012 24.2284565 C96.55289628 25.34084322 100.64509014 26.45555955 104.73681641 27.57202148 C108.08488772 28.4850873 111.43419292 29.39340261 114.78466797 30.29760742 C118.88349572 31.40378015 122.98007014 32.51795621 127.07520294 33.63772774 C128.61638287 34.05779639 130.15829119 34.47520351 131.70098114 34.88969231 C162.45745761 43.16273427 182.44558102 59.27978725 198.61962891 86.50878906 C209.54536096 105.49681123 218.16974257 125.47846753 226.6875 145.625 C227.30567596 147.07740082 227.30567596 147.07740082 227.93634033 148.55914307 C229.11712943 151.34010274 230.2851052 154.12608785 231.44921875 156.9140625 C231.80802628 157.7558606 232.1668338 158.59765869 232.53651428 159.46496582 C235.69203582 167.1004692 235.69203582 167.1004692 235 171 C233.13903729 172.98279333 231.43520901 174.53430265 229.3125 176.1875 C228.72670166 176.66018311 228.14090332 177.13286621 227.53735352 177.61987305 C226.31018941 178.60491789 225.07723281 179.58278577 223.83886719 180.55371094 C222.09622264 181.92431985 220.3784657 183.320895 218.6640625 184.7265625 C210.49883915 191.32613902 200.58691931 199.12843121 189.66404438 199.12304783 C188.32791095 199.1260344 188.32791095 199.1260344 186.96478492 199.12908131 C185.98522258 199.12616847 185.00566023 199.12325563 183.99641418 199.12025452 C182.43673582 199.12153615 182.43673582 199.12153615 180.84554881 199.12284368 C177.3446878 199.12449709 173.84387421 199.11897934 170.34301758 199.11352539 C167.84014385 199.11324346 165.33727004 199.11340136 162.83439636 199.1139679 C157.43727313 199.11419597 152.04016478 199.11135073 146.64304543 199.10573006 C138.8396839 199.09760875 131.03632822 199.09499919 123.23296293 199.09374207 C110.57302992 199.09155254 97.91310334 199.08489514 85.25317383 199.07543945 C72.95402051 199.06626277 60.65486894 199.05918319 48.35571289 199.05493164 C47.59780418 199.05466892 46.83989548 199.05440619 46.05901984 199.05413551 C42.25687766 199.05283049 38.45473546 199.05156678 34.65259326 199.05032361 C3.10172416 199.03995409 -28.44913695 199.02226422 -60 199 C-59.79883453 198.36933917 -59.59766907 197.73867835 -59.39040768 197.08890659 C-58.46977577 194.20177919 -57.54983921 191.31443068 -56.62991333 188.42707825 C-56.31346265 187.43503655 -55.99701197 186.44299485 -55.67097187 185.42089128 C-53.43124273 178.38875837 -51.25971434 171.34286977 -49.1796875 164.26171875 C-48.84652527 163.135345 -48.51336304 162.00897125 -48.17010498 160.84846497 C-47.26072064 157.77358032 -46.35315794 154.69816456 -45.44611359 151.62258911 C-43.59938711 145.36537446 -41.74422189 139.11065069 -39.890625 132.85546875 C-39.66814213 132.10444256 -39.44565926 131.35341637 -39.21643448 130.57963181 C-33.0381022 109.72588733 -26.81105154 88.88667182 -20.58209229 68.04800415 C-19.28348739 63.70358407 -17.98544131 59.3589977 -16.68792725 55.01425171 C-15.13945388 49.8292559 -13.58994726 44.64456999 -12.03964996 39.46011925 C-11.46638058 37.54251407 -10.89342631 35.62481465 -10.32082367 33.70701027 C-6.95824343 22.44627954 -3.53790678 11.20696202 0 0 Z " fill="#D2D2D2" transform="translate(404,440)"/>
<path d="M0 0 C-0.33 0.99 -0.66 1.98 -1 3 C-3.31 2.67 -5.62 2.34 -8 2 C-7.83709473 2.63897217 -7.67418945 3.27794434 -7.50634766 3.9362793 C-4.83649054 14.91831579 -2.96685343 26.04015326 -1.01483154 37.16732788 C0.0859467 43.43855068 1.1985135 49.70767423 2.3125 55.9765625 C2.53813629 57.24652573 2.76377258 58.51648895 2.99624634 59.82493591 C5.12940115 71.79371914 7.363712 83.74236993 9.625 95.6875 C13.43311299 115.82297825 17.05071494 135.9885181 20.6131134 156.16873169 C22.07017186 164.41496936 23.54949179 172.65709152 25.04458618 180.89651489 C25.30321973 182.32226369 25.56135081 183.74810375 25.81893921 185.17404175 C26.16827616 187.10716336 26.51963023 189.03992014 26.87109375 190.97265625 C27.06630615 192.04781494 27.26151855 193.12297363 27.46264648 194.23071289 C27.90560732 196.51354106 28.40550297 198.75280798 29 201 C25.7266297 202.63668515 22.10584682 202.14189207 18.50837708 202.13612366 C17.61887019 202.13853906 16.72936331 202.14095446 15.81290168 202.14344305 C12.81381191 202.15014443 9.81477035 202.14946322 6.81567383 202.14868164 C4.672256 202.15163215 2.5288386 202.15491556 0.38542175 202.1585083 C-19.22311886 202.1845357 -38.83190351 202.15107277 -58.4403944 202.10547733 C-72.93007287 202.07231692 -87.419251 202.06522044 -101.90894336 202.09329897 C-112.10033485 202.11080615 -122.29141939 202.09771801 -132.48276311 202.06241125 C-138.56609802 202.04218884 -144.64874991 202.03534239 -150.73207664 202.06160164 C-156.4657436 202.08574346 -162.19810372 202.07176899 -167.93165398 202.02955627 C-170.026504 202.02060141 -172.12146479 202.02503732 -174.21624374 202.04447746 C-191.32421335 202.19069371 -203.15883535 198.4570731 -215.875 186.5625 C-216.48794922 186.0046582 -217.10089844 185.44681641 -217.73242188 184.87207031 C-218.94087418 183.76612634 -220.14335452 182.65361038 -221.33886719 181.53369141 C-222.84733626 180.14095145 -224.40949115 178.80692678 -225.9765625 177.48046875 C-226.80929688 176.74441406 -227.64203125 176.00835938 -228.5 175.25 C-229.56734375 174.32960938 -229.56734375 174.32960938 -230.65625 173.390625 C-233.25283826 168.77111333 -231.32086263 162.80125808 -229.94360352 157.88671875 C-229.51422749 156.4842371 -229.07563006 155.08455275 -228.62890625 153.6875 C-228.39112961 152.92409805 -228.15335297 152.16069611 -227.90837097 151.37416077 C-227.13688588 148.91265201 -226.3512372 146.45603103 -225.5625 144 C-225.29433472 143.15807098 -225.02616943 142.31614197 -224.74987793 141.44869995 C-212.71204684 103.74480644 -198.12115805 67.31818595 -161.83513641 46.93867111 C-156.43290341 44.17543236 -150.5315379 42.62209933 -144.7265625 40.94140625 C-143.27193046 40.50517176 -141.81778872 40.06729946 -140.36410522 39.62791443 C-136.55705715 38.48208788 -132.74371492 37.35885662 -128.92852783 36.24047852 C-125.15385256 35.1295092 -121.38589894 33.99623351 -117.6171875 32.86523438 C-103.4781781 28.63145812 -89.3086765 24.5049423 -75.12890625 20.41015625 C-65.01092179 17.48810771 -54.92601309 14.4741836 -44.86328125 11.3671875 C-43.65319397 10.99430099 -42.44310669 10.62141449 -41.1963501 10.23722839 C-36.30394428 8.72845911 -31.41213322 7.21803737 -26.5246582 5.69335938 C-22.86945199 4.55466291 -19.21055399 3.42860571 -15.55078125 2.3046875 C-14.44374344 1.95590546 -13.33670563 1.60712341 -12.19612122 1.24777222 C-11.17531967 0.93639313 -10.15451813 0.62501404 -9.1027832 0.30419922 C-8.21033401 0.02712128 -7.31788483 -0.24995667 -6.39839172 -0.53543091 C-3.86851507 -1.02546866 -2.4112522 -0.83409265 0 0 Z " fill="#D0D0D0" transform="translate(232,438)"/>
<path d="M0 0 C12.45793647 2.81799875 24.76279679 6.06127275 37.0625 9.5 C39.63641857 10.21810986 42.21062491 10.93513323 44.7855072 11.64978027 C46.36581407 12.08851591 47.94560687 12.52911123 49.52467346 12.97229004 C54.50907755 14.35778473 59.51641329 15.63545185 64.5378418 16.87915039 C73.09334428 19.00119134 81.60362526 21.27739201 90.109375 23.58984375 C90.88510109 23.80058596 91.66082718 24.01132816 92.46006012 24.2284565 C96.55289628 25.34084322 100.64509014 26.45555955 104.73681641 27.57202148 C108.08488772 28.4850873 111.43419292 29.39340261 114.78466797 30.29760742 C118.88349572 31.40378015 122.98007014 32.51795621 127.07520294 33.63772774 C128.61638287 34.05779639 130.15829119 34.47520351 131.70098114 34.88969231 C162.45745761 43.16273427 182.44558102 59.27978725 198.61962891 86.50878906 C209.54536096 105.49681123 218.16974257 125.47846753 226.6875 145.625 C227.30567596 147.07740082 227.30567596 147.07740082 227.93634033 148.55914307 C229.11712943 151.34010274 230.2851052 154.12608785 231.44921875 156.9140625 C231.80802628 157.7558606 232.1668338 158.59765869 232.53651428 159.46496582 C235.69203582 167.1004692 235.69203582 167.1004692 235 171 C233.13903729 172.98279333 231.43520901 174.53430265 229.3125 176.1875 C228.72670166 176.66018311 228.14090332 177.13286621 227.53735352 177.61987305 C226.31018941 178.60491789 225.07723281 179.58278577 223.83886719 180.55371094 C222.09622264 181.92431985 220.3784657 183.320895 218.6640625 184.7265625 C210.49883915 191.32613902 200.58691931 199.12843121 189.66404438 199.12304783 C188.32791095 199.1260344 188.32791095 199.1260344 186.96478492 199.12908131 C185.98522258 199.12616847 185.00566023 199.12325563 183.99641418 199.12025452 C182.43673582 199.12153615 182.43673582 199.12153615 180.84554881 199.12284368 C177.3446878 199.12449709 173.84387421 199.11897934 170.34301758 199.11352539 C167.84014385 199.11324346 165.33727004 199.11340136 162.83439636 199.1139679 C157.43727313 199.11419597 152.04016478 199.11135073 146.64304543 199.10573006 C138.8396839 199.09760875 131.03632822 199.09499919 123.23296293 199.09374207 C110.57302992 199.09155254 97.91310334 199.08489514 85.25317383 199.07543945 C72.95402051 199.06626277 60.65486894 199.05918319 48.35571289 199.05493164 C47.59780418 199.05466892 46.83989548 199.05440619 46.05901984 199.05413551 C42.25687766 199.05283049 38.45473546 199.05156678 34.65259326 199.05032361 C3.10172416 199.03995409 -28.44913695 199.02226422 -60 199 C-59.01 197.02 -58.02 195.04 -57 193 C-55.06986415 193.00194823 -55.06986415 193.00194823 -53.10073566 193.00393581 C-22.51836921 193.03324179 8.06375309 193.0263702 38.64608283 192.97527504 C42.41468958 192.96901011 46.18329676 192.96304886 49.9519043 192.95727539 C51.07724163 192.95554373 51.07724163 192.95554373 52.22531305 192.95377708 C64.35424584 192.93583643 76.48304604 192.94246658 88.61197647 192.95826416 C101.06825426 192.9739379 113.52430641 192.96300498 125.98054487 192.92765242 C133.65960318 192.90668835 141.33809219 192.90618832 149.01713703 192.93231983 C154.9170799 192.95016742 160.81654621 192.93089911 166.71643639 192.89815521 C169.12819137 192.89048954 171.54001891 192.89464963 173.95172501 192.91181374 C192.09842597 193.06741125 192.09842597 193.06741125 208 185 C208.7135625 184.47795455 209.427125 183.9559091 210.1623106 183.41804409 C211.81441883 182.16123644 213.3440556 180.83820559 214.875 179.4375 C215.40891357 178.96787842 215.94282715 178.49825684 216.49291992 178.0144043 C218.00295637 176.68493816 219.50187201 175.34287112 221 174 C222.43402738 172.76678371 223.87075159 171.53668074 225.3125 170.3125 C226.199375 169.549375 227.08625 168.78625 228 168 C223.91140335 156.82016994 219.51620964 145.8098637 214.8125 134.875 C214.32385971 133.7371254 214.32385971 133.7371254 213.8253479 132.57626343 C192.92365394 83.62349963 192.92365394 83.62349963 154 49 C143.24256771 44.86737519 132.0297214 41.97599734 120.91796875 38.97265625 C119.19051647 38.5022508 117.46317856 38.03142516 115.73594666 37.56021118 C112.09616201 36.5679365 108.4557403 35.5780515 104.8147583 34.59017944 C96.30635455 32.28137922 87.80159652 29.95920798 79.29660797 27.63786507 C76.47986326 26.86915435 73.66299791 26.10088681 70.84613037 25.33262634 C55.59088348 21.17025805 40.35112154 16.95527923 25.125 12.6875 C24.10223969 12.40149933 23.07947937 12.11549866 22.02572632 11.8208313 C19.20672168 11.0321793 16.38836025 10.24128229 13.5703125 9.44921875 C12.77431137 9.22634186 11.97831024 9.00346497 11.15818787 8.77383423 C7.06620819 7.61893545 3.02267376 6.38247031 -1 5 C-0.67 3.35 -0.34 1.7 0 0 Z " fill="#FCFCFC" transform="translate(404,440)"/>
<path d="M0 0 C-0.33 0.99 -0.66 1.98 -1 3 C-3.31 2.67 -5.62 2.34 -8 2 C-8 3.65 -8 5.3 -8 7 C-8.74793823 7.21437714 -9.49587646 7.42875427 -10.26647949 7.64962769 C-31.29908645 13.68956031 -52.24548964 19.98683517 -73.16442871 26.4083252 C-77.07529614 27.60838283 -80.98688735 28.80607619 -84.8984375 30.00390625 C-86.44335215 30.47706659 -87.98826387 30.95023648 -89.53317261 31.42341614 C-90.28904537 31.65492685 -91.04491814 31.88643757 -91.82369614 32.12496376 C-94.79942372 33.03647007 -97.77506457 33.9482593 -100.7507 34.86006641 C-103.52395837 35.70982861 -106.29726615 36.55942942 -109.07059479 37.40896225 C-110.90806777 37.97183825 -112.74550813 38.53482074 -114.58294678 39.09780884 C-133.34082968 44.84149633 -133.34082968 44.84149633 -140.8203125 46.93359375 C-151.65215839 49.97172327 -160.95706259 53.09976663 -170 60 C-170.54833496 60.41797852 -171.09666992 60.83595703 -171.66162109 61.26660156 C-197.73986526 81.44716186 -208.1160642 111.90228127 -217.77685547 142.18945312 C-218.84330499 145.52727056 -219.94744927 148.85124332 -221.06640625 152.171875 C-221.62805362 153.86443426 -222.18929593 155.55712802 -222.75 157.25 C-223.12838013 158.35504883 -223.12838013 158.35504883 -223.5144043 159.48242188 C-224.76214873 163.34102405 -225.4752325 166.14984164 -224 170 C-219.61744166 175.76366233 -213.56987375 180.3081161 -207.9375 184.8125 C-207.09022339 185.49626709 -207.09022339 185.49626709 -206.22583008 186.19384766 C-198.99521323 191.83740803 -192.9255316 194.60509072 -183.68591309 194.51898193 C-182.78069617 194.52648319 -181.87547925 194.53398444 -180.94283152 194.541713 C-177.9271458 194.56191925 -174.91221702 194.55390129 -171.89648438 194.54589844 C-169.72783671 194.55463727 -167.55919548 194.56512413 -165.39056396 194.57722473 C-159.51514063 194.6050671 -153.63992789 194.60848979 -147.76444817 194.60750484 C-141.61981372 194.61063543 -135.4752739 194.63625673 -129.33068848 194.65948486 C-117.70035249 194.7000371 -106.07007256 194.72038381 -94.43967676 194.73345876 C-81.19664573 194.74933138 -67.95371007 194.78774818 -54.71073437 194.82805204 C-27.47385492 194.91044044 -0.23697811 194.96453923 27 195 C27.66 196.98 28.32 198.96 29 201 C25.7266297 202.63668515 22.10584682 202.14189207 18.50837708 202.13612366 C17.61887019 202.13853906 16.72936331 202.14095446 15.81290168 202.14344305 C12.81381191 202.15014443 9.81477035 202.14946322 6.81567383 202.14868164 C4.672256 202.15163215 2.5288386 202.15491556 0.38542175 202.1585083 C-19.22311886 202.1845357 -38.83190351 202.15107277 -58.4403944 202.10547733 C-72.93007287 202.07231692 -87.419251 202.06522044 -101.90894336 202.09329897 C-112.10033485 202.11080615 -122.29141939 202.09771801 -132.48276311 202.06241125 C-138.56609802 202.04218884 -144.64874991 202.03534239 -150.73207664 202.06160164 C-156.4657436 202.08574346 -162.19810372 202.07176899 -167.93165398 202.02955627 C-170.026504 202.02060141 -172.12146479 202.02503732 -174.21624374 202.04447746 C-191.32421335 202.19069371 -203.15883535 198.4570731 -215.875 186.5625 C-216.48794922 186.0046582 -217.10089844 185.44681641 -217.73242188 184.87207031 C-218.94087418 183.76612634 -220.14335452 182.65361038 -221.33886719 181.53369141 C-222.84733626 180.14095145 -224.40949115 178.80692678 -225.9765625 177.48046875 C-226.80929688 176.74441406 -227.64203125 176.00835938 -228.5 175.25 C-229.56734375 174.32960938 -229.56734375 174.32960938 -230.65625 173.390625 C-233.25283826 168.77111333 -231.32086263 162.80125808 -229.94360352 157.88671875 C-229.51422749 156.4842371 -229.07563006 155.08455275 -228.62890625 153.6875 C-228.39112961 152.92409805 -228.15335297 152.16069611 -227.90837097 151.37416077 C-227.13688588 148.91265201 -226.3512372 146.45603103 -225.5625 144 C-225.29433472 143.15807098 -225.02616943 142.31614197 -224.74987793 141.44869995 C-212.71204684 103.74480644 -198.12115805 67.31818595 -161.83513641 46.93867111 C-156.43290341 44.17543236 -150.5315379 42.62209933 -144.7265625 40.94140625 C-143.27193046 40.50517176 -141.81778872 40.06729946 -140.36410522 39.62791443 C-136.55705715 38.48208788 -132.74371492 37.35885662 -128.92852783 36.24047852 C-125.15385256 35.1295092 -121.38589894 33.99623351 -117.6171875 32.86523438 C-103.4781781 28.63145812 -89.3086765 24.5049423 -75.12890625 20.41015625 C-65.01092179 17.48810771 -54.92601309 14.4741836 -44.86328125 11.3671875 C-43.65319397 10.99430099 -42.44310669 10.62141449 -41.1963501 10.23722839 C-36.30394428 8.72845911 -31.41213322 7.21803737 -26.5246582 5.69335938 C-22.86945199 4.55466291 -19.21055399 3.42860571 -15.55078125 2.3046875 C-14.44374344 1.95590546 -13.33670563 1.60712341 -12.19612122 1.24777222 C-11.17531967 0.93639313 -10.15451813 0.62501404 -9.1027832 0.30419922 C-8.21033401 0.02712128 -7.31788483 -0.24995667 -6.39839172 -0.53543091 C-3.86851507 -1.02546866 -2.4112522 -0.83409265 0 0 Z " fill="#FCFCFB" transform="translate(232,438)"/>
<path d="M0 0 C0.66 0 1.32 0 2 0 C3.13134632 3.95654689 4.25389455 7.91554026 5.375 11.875 C5.69210938 12.98359375 6.00921875 14.0921875 6.3359375 15.234375 C15.6223601 48.12378838 14.73873026 82.8529714 -1.96386719 113.18261719 C-4.46507578 117.5697512 -7.16605585 121.81993237 -10 126 C-18.88240886 123.4621689 -26.82618207 119.22230349 -35 115 C-33.67678456 111.37721599 -32.05005306 108.42658912 -29.875 105.25 C-10.18215058 74.60759946 -3.70370746 35.59981499 0 0 Z " fill="#D9830F" transform="translate(169,170)"/>
<path d="M0 0 C2.475 0.495 2.475 0.495 5 1 C2.51258613 11.26414466 -0.21223087 21.41073944 -3.28125 31.51953125 C-3.6918336 32.88212338 -4.10206006 34.24482316 -4.51196289 35.60762024 C-5.38373318 38.50363635 -6.25771442 41.39897145 -7.13354492 44.29376221 C-8.52851895 48.90478015 -9.91809154 53.51741487 -11.30664062 58.13037109 C-11.78429515 59.71704301 -12.26195632 61.30371292 -12.73962402 62.89038086 C-12.97791428 63.68192566 -13.21620453 64.47347046 -13.4617157 65.28900146 C-14.19078076 67.71011363 -14.92033217 70.13107874 -15.65002441 72.55200195 C-20.41586407 88.36557677 -25.14849218 104.18900282 -29.87062073 120.01567841 C-30.49837689 122.11956024 -31.12630585 124.22339044 -31.75427246 126.32720947 C-38.8809686 150.20491116 -45.96340598 174.09558402 -53 198 C-54.65 198 -56.3 198 -58 198 C-59.35747411 195.28505178 -58.66911597 194.21213792 -57.8125 191.328125 C-57.52955078 190.36527588 -57.24660156 189.40242676 -56.95507812 188.41040039 C-56.48231445 186.8460022 -56.48231445 186.8460022 -56 185.25 C-55.67966797 184.17032959 -55.35933594 183.09065918 -55.02929688 181.97827148 C-52.68438634 174.12729533 -50.20208908 166.32410641 -47.68028831 158.52855492 C-45.54699509 151.87038735 -43.61735354 145.17294366 -41.76416016 138.43212891 C-38.10273897 125.24424043 -34.21228596 112.13068725 -30.2734375 99.0234375 C-29.55541917 96.62891561 -28.83753679 94.23435295 -28.11978149 91.8397522 C-26.63049301 86.87302705 -25.13958457 81.90679207 -23.64746094 76.94091797 C-21.74712282 70.61600206 -19.85094593 64.28984747 -17.95596886 57.96332359 C-16.48027183 53.03828162 -15.00237065 48.11390314 -13.52382278 43.18971634 C-12.8239193 40.85780581 -12.1246808 38.52569557 -11.42615891 36.19337082 C-7.79291448 24.06662698 -4.12195715 11.9709987 0 0 Z " fill="#0E0B08" transform="translate(399,439)"/>
<path d="M0 0 C1.65 0 3.3 0 5 0 C7.68740001 9.9852598 9.60518537 20.06594582 11.4765625 30.2265625 C11.80621556 32.00148365 12.13616844 33.77634914 12.46640015 35.55116272 C13.3429864 40.26801922 14.21478366 44.98574852 15.08544922 49.70370102 C15.80895642 53.62099836 16.53527842 57.5377718 17.2615242 61.45456219 C21.58556242 84.77891627 25.86956721 108.11010781 30.02954102 131.46435547 C31.74742775 141.10083089 33.50094546 150.72903219 35.31640625 160.34765625 C35.50641205 161.35668503 35.69641785 162.36571381 35.8921814 163.40531921 C36.79263094 168.18398502 37.69869889 172.96145394 38.61523438 177.73706055 C38.93248597 179.41321193 39.24955408 181.08939806 39.56640625 182.765625 C39.71276016 183.51614639 39.85911407 184.26666779 40.00990295 185.03993225 C40.76804536 189.08247797 41.14824539 192.88790705 41 197 C39.35 197.33 37.7 197.66 36 198 C31.14859725 174.37790137 26.89014218 150.65596835 22.67578125 126.9140625 C21.82603653 122.13011657 20.9756979 117.34627652 20.125 112.5625 C19.9098877 111.35230194 19.69477539 110.14210388 19.47314453 108.89523315 C16.53833183 92.40159128 13.500303 75.93248277 10.32696533 59.48318481 C7.76244101 46.17627605 5.33451289 32.84919243 3 19.5 C2.84584625 18.62118164 2.6916925 17.74236328 2.53286743 16.83691406 C2.1029126 14.38125798 1.67574642 11.92513885 1.25 9.46875 C1.12231735 8.73765015 0.9946347 8.00655029 0.86308289 7.2532959 C0 2.23345938 0 2.23345938 0 0 Z " fill="#0D0A07" transform="translate(224,440)"/>
<path d="M0 0 C2.10649301 3.59750397 2.74920592 7.17432907 3.5078125 11.25 C3.63815887 11.94512695 3.76850525 12.64025391 3.90280151 13.35644531 C4.1762059 14.82173 4.4466648 16.28756697 4.71435547 17.75390625 C5.12383355 19.99361991 5.54358741 22.23122508 5.96484375 24.46875 C8 35.43038366 8 35.43038366 8 40 C32.75 39.67 57.5 39.34 83 39 C83 39.99 83 40.98 83 42 C84.32 42.66 85.64 43.32 87 44 C84.83007851 46.16992149 79.93822961 45.43084694 76.9296875 45.55859375 C75.96191376 45.60084579 74.99414001 45.64309784 73.99703979 45.68663025 C60.7409076 46.2009642 47.47555836 46.11215388 34.21209717 46.06866455 C30.67786276 46.05822567 27.14362055 46.05382404 23.609375 46.04882812 C16.73956507 46.03827062 9.86978477 46.02132512 3 46 C3 45.34 3 44.68 3 44 C4.98 43.505 4.98 43.505 7 43 C6.78794922 41.87505127 6.57589844 40.75010254 6.35742188 39.59106445 C5.57015545 35.40799029 4.78883173 31.22382426 4.00927734 27.03930664 C3.67137453 25.23008492 3.33187155 23.42116128 2.99072266 21.61254883 C2.49999414 19.00939858 2.01507374 16.40522251 1.53125 13.80078125 C1.37813354 12.99538406 1.22501709 12.18998688 1.06726074 11.36018372 C0.35963977 7.52071959 -0.19261946 3.92462147 0 0 Z " fill="#D69E58" transform="translate(258,594)"/>
<path d="M0 0 C0.05534912 1.04341553 0.11069824 2.08683105 0.16772461 3.16186523 C0.37573609 7.07021062 0.58715921 10.97836554 0.79956055 14.88647461 C0.89064624 16.57099562 0.98083329 18.25556549 1.07006836 19.94018555 C1.19923688 22.3756256 1.33174434 24.81086573 1.46484375 27.24609375 C1.50343002 27.98709824 1.5420163 28.72810272 1.58177185 29.49156189 C1.83094183 33.98085973 2.25508114 38.42264509 2.77388 42.88838196 C3.34218602 48.19549878 3.4301034 53.54400481 3.625 58.875 C3.6765625 60.09703125 3.728125 61.3190625 3.78125 62.578125 C3.82507813 63.74601562 3.86890625 64.91390625 3.9140625 66.1171875 C3.9548291 67.17534668 3.9955957 68.23350586 4.03759766 69.32373047 C4 72 4 72 3 75 C1.02 75 -0.96 75 -3 75 C-2.98952637 74.44989258 -2.97905273 73.89978516 -2.96826172 73.33300781 C-2.77573047 61.45456108 -3.05598542 49.71994153 -4 37.875 C-4.67038056 29.22958683 -5.25312931 20.61012314 -5.375 11.9375 C-5.40078125 11.06915527 -5.4265625 10.20081055 -5.453125 9.30615234 C-5.47200986 3.49551633 -5.47200986 3.49551633 -3.0390625 0.94140625 C-1 0 -1 0 0 0 Z " fill="#D39B55" transform="translate(402,364)"/>
<path d="M0 0 C2.46484375 1.27734375 2.46484375 1.27734375 5 4 C5.77606722 7.85173998 5.6593762 11.64672324 5.5625 15.5625 C5.54662842 16.67915039 5.53075684 17.79580078 5.5144043 18.94628906 C5.14109208 32.7322462 2.47818456 45.52496741 -2.8515625 58.23828125 C-4.0498254 61.11981822 -5.04375703 64.03038306 -6 67 C-8.12046792 63.46588679 -8.53199289 60.05606165 -9 56 C-8.34 56 -7.68 56 -7 56 C-7.061875 55.34 -7.12375 54.68 -7.1875 54 C-6.98418889 50.74702224 -5.9969535 48.24413825 -4.796875 45.23828125 C-1.03855343 34.6818192 -0.82429161 23.07111728 -0.4375 12 C-0.39431641 10.84371094 -0.35113281 9.68742187 -0.30664062 8.49609375 C-0.20132083 5.66416146 -0.09918913 2.83215253 0 0 Z " fill="#D39B56" transform="translate(238,385)"/>
<path d="M0 0 C2 1 2 1 3.2421875 3.140625 C5.47644288 6.77501376 8.19619505 9.66469715 11.125 12.75 C11.72739502 13.3896167 12.32979004 14.0292334 12.95043945 14.68823242 C17.95535734 19.96925739 23.0543958 25.15626874 28.1875 30.3125 C28.91791504 31.04758789 29.64833008 31.78267578 30.40087891 32.54003906 C31.08714355 33.22420898 31.7734082 33.90837891 32.48046875 34.61328125 C33.39155396 35.52267456 33.39155396 35.52267456 34.32104492 36.45043945 C36.12475776 38.19633683 36.12475776 38.19633683 39 40 C39 40.66 39 41.32 39 42 C38.01 42.33 37.02 42.66 36 43 C31.99482718 39.01974213 27.99310045 35.03606133 23.99438477 31.04931641 C22.63657873 29.69650645 21.27787249 28.34459934 19.91821289 26.99365234 C-0.31624861 6.8855169 -0.31624861 6.8855169 -1 1 C-0.67 0.67 -0.34 0.34 0 0 Z " fill="#FBCC8A" transform="translate(199,340)"/>
<path d="M0 0 C0.33 0 0.66 0 1 0 C1.83807975 5.12257601 2.67419227 10.24546795 3.50854492 15.36865234 C3.7921942 17.10864775 4.07636516 18.84855819 4.36108398 20.58837891 C4.77206999 23.10035991 5.18113052 25.61264833 5.58984375 28.125 C5.71592514 28.89303955 5.84200653 29.6610791 5.97190857 30.45239258 C6.75679973 35.29164938 7.4180675 40.13205015 8 45 C7.34 45 6.68 45 6 45 C5.67 45.99 5.34 46.98 5 48 C4.29964731 43.94837288 3.60623333 39.89561971 2.91870117 35.84179688 C2.68483934 34.46843966 2.44921867 33.09538055 2.21166992 31.72265625 C-1.93467751 7.73871003 -1.93467751 7.73871003 0 0 Z " fill="#FCCD8B" transform="translate(192,292)"/>
<path d="M0 0 C0.92534042 0.01686859 1.85068085 0.03373718 2.80406189 0.05111694 C4.31172874 0.08696396 4.31172874 0.08696396 5.84985352 0.12353516 C6.88634537 0.14477448 7.92283722 0.16601379 8.99073792 0.18789673 C11.19244727 0.23424459 13.39410343 0.28317947 15.59570312 0.33447266 C18.93356853 0.41155405 22.27152346 0.47914768 25.60961914 0.54541016 C27.75220974 0.59171162 29.89478839 0.63856964 32.03735352 0.68603516 C33.51769325 0.71580948 33.51769325 0.71580948 35.02793884 0.7461853 C41.56652331 0.90505757 48.03550433 1.36684396 54.54125977 2.03759766 C54.54125977 2.36759766 54.54125977 2.69759766 54.54125977 3.03759766 C34.41125977 3.03759766 14.28125977 3.03759766 -6.45874023 3.03759766 C-6.45874023 2.37759766 -6.45874023 1.71759766 -6.45874023 1.03759766 C-4.06340249 -0.16007122 -2.67005445 -0.0555873 0 0 Z " fill="#DEB480" transform="translate(267.458740234375,636.96240234375)"/>
<path d="M0 0 C0.66 0.33 1.32 0.66 2 1 C1.319375 1.763125 0.63875 2.52625 -0.0625 3.3125 C-0.701875 4.199375 -1.34125 5.08625 -2 6 C-1.67 6.99 -1.34 7.98 -1 9 C-3.31 10.65 -5.62 12.3 -8 14 C-8.56856149 9.16722732 -6.94019289 6.75691314 -4 3 C-1.75 1.125 -1.75 1.125 0 0 Z " fill="#FFD9A7" transform="translate(347,444)"/>
<path d="M0 0 C0.99 0.33 1.98 0.66 3 1 C1.21427748 2.83947337 -0.57802449 4.67157741 -2.375 6.5 C-2.88289062 7.02464844 -3.39078125 7.54929687 -3.9140625 8.08984375 C-5.23832604 9.43153181 -6.61605865 10.71995815 -8 12 C-8.66 12 -9.32 12 -10 12 C-10.66 13.32 -11.32 14.64 -12 16 C-12.99 15.67 -13.98 15.34 -15 15 C-14.55269531 14.56429687 -14.10539063 14.12859375 -13.64453125 13.6796875 C-10.70369501 10.78274433 -7.84510262 7.90161793 -5.25 4.6875 C-3 2 -3 2 0 0 Z " fill="#A77622" transform="translate(208,33)"/>
<path d="M0 0 C10.23 0.33 20.46 0.66 31 1 C31 1.66 31 2.32 31 3 C26.72918086 3.02897435 22.45838691 3.04678996 18.1875 3.0625 C16.36508789 3.07506836 16.36508789 3.07506836 14.50585938 3.08789062 C12.76079102 3.09272461 12.76079102 3.09272461 10.98046875 3.09765625 C9.90692139 3.10289307 8.83337402 3.10812988 7.72729492 3.11352539 C5 3 5 3 2 2 C1.67 2.99 1.34 3.98 1 5 C0.67 3.35 0.34 1.7 0 0 Z " fill="#B7904A" transform="translate(53,350)"/>
<path d="M0 0 C0.33 0 0.66 0 1 0 C1 13.2 1 26.4 1 40 C0.67 40 0.34 40 0 40 C0 26.8 0 13.6 0 0 Z " fill="#FDFDFB" transform="translate(513,288)"/>
<path d="M0 0 C0 0.33 0 0.66 0 1 C-6.32589627 2.13955862 -12.52278338 2.1142637 -18.9375 2.0625 C-20.53561523 2.05573242 -20.53561523 2.05573242 -22.16601562 2.04882812 C-24.77740291 2.03711787 -27.38867124 2.02071724 -30 2 C-30 1.67 -30 1.34 -30 1 C-26.87522287 0.82897872 -23.75015208 0.66401507 -20.625 0.5 C-19.75488281 0.45230469 -18.88476562 0.40460938 -17.98828125 0.35546875 C-11.98637239 0.04425866 -6.00955557 -0.05823526 0 0 Z " fill="#FDFCFA" transform="translate(90,348)"/>
<path d="M0 0 C1.17683393 3.427825 0.80839977 5.46448981 -0.3125 8.875 C-0.73402344 10.18210937 -0.73402344 10.18210937 -1.1640625 11.515625 C-1.43992187 12.33546875 -1.71578125 13.1553125 -2 14 C-2.391875 15.19625 -2.78375 16.3925 -3.1875 17.625 C-3.455625 18.40875 -3.72375 19.1925 -4 20 C-4.33 20 -4.66 20 -5 20 C-4.45484328 12.91296261 -2.39081395 6.67203894 0 0 Z " fill="#E6E6E6" transform="translate(375,538)"/>
<path d="M0 0 C0.66 0.99 1.32 1.98 2 3 C-0.31 4.65 -2.62 6.3 -5 8 C-3.8141763 4.62496331 -2.72426311 2.35277269 0 0 Z " fill="#FFE0B6" transform="translate(344,450)"/>
<path d="M0 0 C5.28 0 10.56 0 16 0 C16 0.33 16 0.66 16 1 C12.37 1.66 8.74 2.32 5 3 C5 3.99 5 4.98 5 6 C3.31237149 4.3545622 1.6459651 2.68711423 0 1 C0 0.67 0 0.34 0 0 Z " fill="#AC7E2D" transform="translate(84,421)"/>
<path d="M0 0 C0.33 0 0.66 0 1 0 C0.91245449 1.75091019 0.80426627 3.50079551 0.6875 5.25 C0.62949219 6.22453125 0.57148438 7.1990625 0.51171875 8.203125 C-0.04636524 11.25341611 -0.96369776 12.70711276 -3 15 C-3.25 8.375 -3.25 8.375 -1 5 C-0.61500109 3.34450469 -0.27206865 1.6777567 0 0 Z " fill="#AA7210" transform="translate(183,202)"/>
<path d="M0 0 C6.6 0 13.2 0 20 0 C20 0.33 20 0.66 20 1 C13.4 1 6.8 1 0 1 C0 0.67 0 0.34 0 0 Z " fill="#FEFDFA" transform="translate(24,322)"/>
<path d="M0 0 C0.33 0 0.66 0 1 0 C1.95261487 4.76307437 2.08333357 9.1666528 2 14 C-0.07384637 11.71823587 -0.98397191 10.55676517 -1.07421875 7.421875 C-0.94660156 6.54015625 -0.81898438 5.6584375 -0.6875 4.75 C-0.56761719 3.85796875 -0.44773438 2.9659375 -0.32421875 2.046875 C-0.21722656 1.37140625 -0.11023438 0.6959375 0 0 Z " fill="#FBC884" transform="translate(192,292)"/>
<path d="M0 0 C-0.33 0.99 -0.66 1.98 -1 3 C-3.97 2.505 -3.97 2.505 -7 2 C-7 1.34 -7 0.68 -7 0 C-3.86650268 -1.04449911 -3.01031744 -0.93423645 0 0 Z " fill="#EFEAE2" transform="translate(232,438)"/>
<path d="M0 0 C5.28 0 10.56 0 16 0 C16 0.33 16 0.66 16 1 C10.72 1 5.44 1 0 1 C0 0.67 0 0.34 0 0 Z " fill="#FEFDFC" transform="translate(86,419)"/>
<path d="M0 0 C0.33 0.66 0.66 1.32 1 2 C-3.95 2 -8.9 2 -14 2 C-14 1.67 -14 1.34 -14 1 C-9.38 0.67 -4.76 0.34 0 0 Z " fill="#FEFDFB" transform="translate(118,403)"/>
<path d="M0 0 C0.33 0 0.66 0 1 0 C1 5.28 1 10.56 1 16 C0.67 16 0.34 16 0 16 C0 10.72 0 5.44 0 0 Z " fill="#FDFDFC" transform="translate(512,272)"/>
<path d="M0 0 C0.33 0 0.66 0 1 0 C1 4.29 1 8.58 1 13 C0.67 13 0.34 13 0 13 C0 8.71 0 4.42 0 0 Z " fill="#FDFDFC" transform="translate(512,329)"/>
<path d="M0 0 C3.63 0 7.26 0 11 0 C11 0.33 11 0.66 11 1 C7.37 1 3.74 1 0 1 C0 0.67 0 0.34 0 0 Z " fill="#FEFDFB" transform="translate(44,321)"/>
<path d="M0 0 C0.33 0 0.66 0 1 0 C1 3.3 1 6.6 1 10 C0.67 10 0.34 10 0 10 C0 6.7 0 3.4 0 0 Z " fill="#FDFDFB" transform="translate(511,261)"/>
<path d="M0 0 C0.33 0 0.66 0 1 0 C1 3.3 1 6.6 1 10 C0.67 10 0.34 10 0 10 C0 6.7 0 3.4 0 0 Z " fill="#FDFDFB" transform="translate(510,250)"/>
<path d="M0 0 C0.33 0 0.66 0 1 0 C1 2.97 1 5.94 1 9 C0.67 9 0.34 9 0 9 C0 6.03 0 3.06 0 0 Z " fill="#FDFDFB" transform="translate(511,343)"/>
<path d="M0 0 C0.33 0 0.66 0 1 0 C1 2.97 1 5.94 1 9 C0.67 9 0.34 9 0 9 C0 6.03 0 3.06 0 0 Z " fill="#FDFDFC" transform="translate(132,236)"/>
<path d="M0 0 C2.64 0 5.28 0 8 0 C8 0.33 8 0.66 8 1 C5.36 1 2.72 1 0 1 C0 0.67 0 0.34 0 0 Z " fill="#FEFDFB" transform="translate(96,403)"/>
<path d="M0 0 C0.33 0 0.66 0 1 0 C1 2.64 1 5.28 1 8 C0.67 8 0.34 8 0 8 C0 5.36 0 2.72 0 0 Z " fill="#FDFDFC" transform="translate(130,253)"/>
<path d="M0 0 C0.33 0 0.66 0 1 0 C1 2.64 1 5.28 1 8 C0.67 8 0.34 8 0 8 C0 5.36 0 2.72 0 0 Z " fill="#FDFDFC" transform="translate(131,245)"/>
<path d="M0 0 C0.33 0 0.66 0 1 0 C1 2.64 1 5.28 1 8 C0.67 8 0.34 8 0 8 C0 5.36 0 2.72 0 0 Z " fill="#FDFDFC" transform="translate(509,242)"/>
<path d="M0 0 C0.33 0 0.66 0 1 0 C1 2.64 1 5.28 1 8 C0.67 8 0.34 8 0 8 C0 5.36 0 2.72 0 0 Z " fill="#FDFDFC" transform="translate(508,234)"/>
<path d="M0 0 C0.33 0 0.66 0 1 0 C1 2.64 1 5.28 1 8 C0.67 8 0.34 8 0 8 C0 5.36 0 2.72 0 0 Z " fill="#FDFDFC" transform="translate(133,227)"/>
<path d="M0 0 C0.33 0 0.66 0 1 0 C1 2.64 1 5.28 1 8 C0.67 8 0.34 8 0 8 C0 5.36 0 2.72 0 0 Z " fill="#FDFDFB" transform="translate(134,218)"/>
<path d="M0 0 C0.33 0 0.66 0 1 0 C1 2.64 1 5.28 1 8 C0.67 8 0.34 8 0 8 C0 5.36 0 2.72 0 0 Z " fill="#FEFDFC" transform="translate(135,210)"/>
<path d="M0 0 C0.33 0 0.66 0 1 0 C1 2.31 1 4.62 1 7 C0.67 7 0.34 7 0 7 C0 4.69 0 2.38 0 0 Z " fill="#FDFDFC" transform="translate(510,352)"/>
<path d="M0 0 C2.31 0 4.62 0 7 0 C7 0.33 7 0.66 7 1 C4.69 1 2.38 1 0 1 C0 0.67 0 0.34 0 0 Z " fill="#FEFDFB" transform="translate(53,348)"/>
<path d="M0 0 C2.31 0 4.62 0 7 0 C7 0.33 7 0.66 7 1 C4.69 1 2.38 1 0 1 C0 0.67 0 0.34 0 0 Z " fill="#FEFDFB" transform="translate(73,347)"/>
<path d="M0 0 C2.31 0 4.62 0 7 0 C7 0.33 7 0.66 7 1 C4.69 1 2.38 1 0 1 C0 0.67 0 0.34 0 0 Z " fill="#FEFDFB" transform="translate(55,320)"/>
<path d="M0 0 C0.33 0 0.66 0 1 0 C1 2.31 1 4.62 1 7 C0.67 7 0.34 7 0 7 C0 4.69 0 2.38 0 0 Z " fill="#FDFDFC" transform="translate(507,227)"/>
<path d="M0 0 C0.33 0 0.66 0 1 0 C1 2.31 1 4.62 1 7 C0.67 7 0.34 7 0 7 C0 4.69 0 2.38 0 0 Z " fill="#FEFDFC" transform="translate(136,203)"/>
<path d="M0 0 C0.33 0 0.66 0 1 0 C1 2.31 1 4.62 1 7 C0.67 7 0.34 7 0 7 C0 4.69 0 2.38 0 0 Z " fill="#FEFDFC" transform="translate(137,196)"/>
<path d="M0 0 C0.33 0 0.66 0 1 0 C1 1.98 1 3.96 1 6 C0.67 6 0.34 6 0 6 C0 4.02 0 2.04 0 0 Z " fill="#FEFDFC" transform="translate(508,365)"/>
<path d="M0 0 C0.33 0 0.66 0 1 0 C1 1.98 1 3.96 1 6 C0.67 6 0.34 6 0 6 C0 4.02 0 2.04 0 0 Z " fill="#FEFDFC" transform="translate(509,359)"/>
<path d="M0 0 C0.33 0 0.66 0 1 0 C1 1.98 1 3.96 1 6 C0.67 6 0.34 6 0 6 C0 4.02 0 2.04 0 0 Z " fill="#FEFDFC" transform="translate(129,262)"/>
<path d="M0 0 C0.33 0 0.66 0 1 0 C1 1.98 1 3.96 1 6 C0.67 6 0.34 6 0 6 C0 4.02 0 2.04 0 0 Z " fill="#FDFDFB" transform="translate(506,221)"/>
<path d="M0 0 C0.33 0 0.66 0 1 0 C1 1.98 1 3.96 1 6 C0.67 6 0.34 6 0 6 C0 4.02 0 2.04 0 0 Z " fill="#FDFDFB" transform="translate(505,214)"/>
<path d="M0 0 C0.33 0 0.66 0 1 0 C1 1.98 1 3.96 1 6 C0.67 6 0.34 6 0 6 C0 4.02 0 2.04 0 0 Z " fill="#FEFDFC" transform="translate(504,208)"/>
<path d="M0 0 C0.33 0 0.66 0 1 0 C1 1.98 1 3.96 1 6 C0.67 6 0.34 6 0 6 C0 4.02 0 2.04 0 0 Z " fill="#FEFDFC" transform="translate(503,202)"/>
<path d="M0 0 C0.33 0 0.66 0 1 0 C1 1.98 1 3.96 1 6 C0.67 6 0.34 6 0 6 C0 4.02 0 2.04 0 0 Z " fill="#FEFDFC" transform="translate(501,191)"/>
<path d="M0 0 C0.33 0 0.66 0 1 0 C1 1.98 1 3.96 1 6 C0.67 6 0.34 6 0 6 C0 4.02 0 2.04 0 0 Z " fill="#FDFDFB" transform="translate(138,189)"/>
<path d="M0 0 C0.33 0 0.66 0 1 0 C1 1.98 1 3.96 1 6 C0.67 6 0.34 6 0 6 C0 4.02 0 2.04 0 0 Z " fill="#FEFDFC" transform="translate(141,171)"/>
<path d="M0 0 C1.98 0 3.96 0 6 0 C6 0.33 6 0.66 6 1 C4.02 1 2.04 1 0 1 C0 0.67 0 0.34 0 0 Z " fill="#FEFDFB" transform="translate(335,0)"/>
<path d="M0 0 C0.66 0 1.32 0 2 0 C2 0.66 2 1.32 2 2 C1.01 1.67 0.02 1.34 -1 1 C-0.67 0.67 -0.34 0.34 0 0 Z " fill="#FEFEFD" transform="translate(135,462)"/>
<path d="M0 0 C1.485 0.99 1.485 0.99 3 2 C1.68 1.67 0.36 1.34 -1 1 C-0.67 0.67 -0.34 0.34 0 0 Z " fill="#FEFEFD" transform="translate(468,454)"/>
<path d="M0 0 C1.65 0 3.3 0 5 0 C5 0.33 5 0.66 5 1 C3.35 1 1.7 1 0 1 C0 0.67 0 0.34 0 0 Z " fill="#FEFDFB" transform="translate(103,418)"/>
<path d="M0 0 C0.33 0 0.66 0 1 0 C1 1.65 1 3.3 1 5 C0.67 5 0.34 5 0 5 C0 3.35 0 1.7 0 0 Z " fill="#FEFDFB" transform="translate(507,371)"/>
<path d="M0 0 C1.65 0 3.3 0 5 0 C5 0.33 5 0.66 5 1 C3.35 1 1.7 1 0 1 C0 0.67 0 0.34 0 0 Z " fill="#FEFDFB" transform="translate(68,346)"/>
<path d="M0 0 C1.65 0 3.3 0 5 0 C5 0.33 5 0.66 5 1 C3.35 1 1.7 1 0 1 C0 0.67 0 0.34 0 0 Z " fill="#FEFDFB" transform="translate(62,319)"/>
<path d="M0 0 C0.33 0 0.66 0 1 0 C1 1.65 1 3.3 1 5 C0.67 5 0.34 5 0 5 C0 3.35 0 1.7 0 0 Z " fill="#FDFDFB" transform="translate(502,197)"/>
<path d="M0 0 C0.33 0 0.66 0 1 0 C1 1.65 1 3.3 1 5 C0.67 5 0.34 5 0 5 C0 3.35 0 1.7 0 0 Z " fill="#FEFDFC" transform="translate(500,186)"/>
<path d="M0 0 C0.33 0 0.66 0 1 0 C1 1.65 1 3.3 1 5 C0.67 5 0.34 5 0 5 C0 3.35 0 1.7 0 0 Z " fill="#FDFDFB" transform="translate(139,183)"/>
<path d="M0 0 C0.33 0 0.66 0 1 0 C1 1.65 1 3.3 1 5 C0.67 5 0.34 5 0 5 C0 3.35 0 1.7 0 0 Z " fill="#FEFDFC" transform="translate(499,181)"/>
<path d="M0 0 C0.33 0 0.66 0 1 0 C1 1.65 1 3.3 1 5 C0.67 5 0.34 5 0 5 C0 3.35 0 1.7 0 0 Z " fill="#FDFDFB" transform="translate(140,177)"/>
<path d="M0 0 C0.33 0 0.66 0 1 0 C1 1.65 1 3.3 1 5 C0.67 5 0.34 5 0 5 C0 3.35 0 1.7 0 0 Z " fill="#FDFDFB" transform="translate(142,166)"/>
<path d="M0 0 C0.33 0 0.66 0 1 0 C1 1.65 1 3.3 1 5 C0.67 5 0.34 5 0 5 C0 3.35 0 1.7 0 0 Z " fill="#FEFDFC" transform="translate(143,161)"/>
<path d="M0 0 C0.33 0 0.66 0 1 0 C1 1.65 1 3.3 1 5 C0.67 5 0.34 5 0 5 C0 3.35 0 1.7 0 0 Z " fill="#FEFDFC" transform="translate(144,156)"/>
<path d="M0 0 C1.65 0 3.3 0 5 0 C5 0.33 5 0.66 5 1 C3.35 1 1.7 1 0 1 C0 0.67 0 0.34 0 0 Z " fill="#FEFDFC" transform="translate(346,2)"/>
<path d="M0 0 C1.65 0 3.3 0 5 0 C5 0.33 5 0.66 5 1 C3.35 1 1.7 1 0 1 C0 0.67 0 0.34 0 0 Z " fill="#FEFDFB" transform="translate(341,1)"/>
<path d="M0 0 C1.65 0 3.3 0 5 0 C5 0.33 5 0.66 5 1 C3.35 1 1.7 1 0 1 C0 0.67 0 0.34 0 0 Z " fill="#FEFDFC" transform="translate(268,0)"/>
<path d="M0 0 C4 1 4 1 4 1 Z " fill="#FFFFFF" transform="translate(84,478)"/>
<path d="M0 0 C4 1 4 1 4 1 Z " fill="#FFFFFF" transform="translate(547,477)"/>
<path d="M0 0 C4 1 4 1 4 1 Z " fill="#FFFFFF" transform="translate(536,474)"/>
<path d="M0 0 C4 1 4 1 4 1 Z " fill="#FFFFFF" transform="translate(525,471)"/>
<path d="M0 0 C4 1 4 1 4 1 Z " fill="#FFFFFF" transform="translate(107,471)"/>
<path d="M0 0 C4 1 4 1 4 1 Z " fill="#FFFFFF" transform="translate(518,469)"/>
<path d="M0 0 C4 1 4 1 4 1 Z " fill="#FFFFFF" transform="translate(507,466)"/>
<path d="M0 0 C4 1 4 1 4 1 Z " fill="#FFFFFF" transform="translate(496,463)"/>
<path d="M0 0 C4 1 4 1 4 1 Z " fill="#FFFFFF" transform="translate(489,461)"/>
<path d="M0 0 C4 1 4 1 4 1 Z " fill="#FFFFFF" transform="translate(478,458)"/>
<path d="M0 0 C4 1 4 1 4 1 Z " fill="#FEFDFB" transform="translate(92,402)"/>
<path d="M0 0 C4 1 4 1 4 1 Z " fill="#FEFDFC" transform="translate(88,401)"/>
<path d="M0 0 C1 4 1 4 1 4 Z " fill="#FEFDFC" transform="translate(504,384)"/>
<path d="M0 0 C1 4 1 4 1 4 Z " fill="#FEFDFC" transform="translate(505,380)"/>
<path d="M0 0 C1 4 1 4 1 4 Z " fill="#FDFDFC" transform="translate(506,376)"/>
<path d="M0 0 C1 4 1 4 1 4 Z " fill="#FEFDFC" transform="translate(52,355)"/>
<path d="M0 0 C1 4 1 4 1 4 Z " fill="#FEFDFC" transform="translate(51,351)"/>
<path d="M0 0 C4 1 4 1 4 1 Z " fill="#FEFDFB" transform="translate(68,318)"/>
<path d="M0 0 C4 1 4 1 4 1 Z " fill="#FEFDFC" transform="translate(72,317)"/>
<path d="M0 0 C4 1 4 1 4 1 Z " fill="#FEFDFC" transform="translate(76,316)"/>
<path d="M0 0 C1 4 1 4 1 4 Z " fill="#FEFDFC" transform="translate(127,272)"/>
<path d="M0 0 C1 4 1 4 1 4 Z " fill="#FDFDFB" transform="translate(128,268)"/>
<path d="M0 0 C1 4 1 4 1 4 Z " fill="#FEFDFB" transform="translate(498,177)"/>
<path d="M0 0 C1 4 1 4 1 4 Z " fill="#FDFDFC" transform="translate(496,168)"/>
<path d="M0 0 C1 4 1 4 1 4 Z " fill="#FDFDFC" transform="translate(495,164)"/>
<path d="M0 0 C1 4 1 4 1 4 Z " fill="#FDFDFC" transform="translate(145,152)"/>
<path d="M0 0 C1 4 1 4 1 4 Z " fill="#FEFDFB" transform="translate(146,148)"/>
<path d="M0 0 C1 4 1 4 1 4 Z " fill="#FEFDFC" transform="translate(149,136)"/>
<path d="M0 0 C4 1 4 1 4 1 Z " fill="#FEFDFC" transform="translate(355,4)"/>
<path d="M0 0 C4 1 4 1 4 1 Z " fill="#FEFDFB" transform="translate(351,3)"/>
<path d="M0 0 C4 1 4 1 4 1 Z " fill="#FEFDFB" transform="translate(264,1)"/>
<path d="M0 0 C3 1 3 1 3 1 Z " fill="#FFFFFF" transform="translate(599,639)"/>
<path d="M0 0 C3 1 3 1 3 1 Z " fill="#FFFFFF" transform="translate(36,639)"/>
<path d="" fill="#FFFFFF" transform="translate(0,0)"/>
<path d="" fill="#FFFFFF" transform="translate(0,0)"/>
<path d="" fill="#FFFFFF" transform="translate(0,0)"/>
<path d="" fill="#FFFFFF" transform="translate(0,0)"/>
<path d="" fill="#FFFFFF" transform="translate(0,0)"/>
<path d="" fill="#FFFFFF" transform="translate(0,0)"/>
<path d="" fill="#FFFFFF" transform="translate(0,0)"/>
<path d="" fill="#FFFFFF" transform="translate(0,0)"/>
<path d="" fill="#FFFFFF" transform="translate(0,0)"/>
<path d="" fill="#FFFFFF" transform="translate(0,0)"/>
<path d="" fill="#FFFFFF" transform="translate(0,0)"/>
<path d="" fill="#FFFFFF" transform="translate(0,0)"/>
<path d="" fill="#FFFFFF" transform="translate(0,0)"/>
<path d="" fill="#FFFFFF" transform="translate(0,0)"/>
<path d="" fill="#FFFFFF" transform="translate(0,0)"/>
<path d="" fill="#FFFFFF" transform="translate(0,0)"/>
<path d="" fill="#FFFFFF" transform="translate(0,0)"/>
<path d="" fill="#FFFFFF" transform="translate(0,0)"/>
<path d="M0 0 C3 1 3 1 3 1 Z " fill="#FFFFFF" transform="translate(75,481)"/>
<path d="M0 0 C3 1 3 1 3 1 Z " fill="#FFFFFF" transform="translate(78,480)"/>
<path d="M0 0 C3 1 3 1 3 1 Z " fill="#FFFFFF" transform="translate(81,479)"/>
<path d="M0 0 C3 1 3 1 3 1 Z " fill="#FFFFFF" transform="translate(551,478)"/>
<path d="M0 0 C3 1 3 1 3 1 Z " fill="#FFFFFF" transform="translate(88,477)"/>
<path d="M0 0 C3 1 3 1 3 1 Z " fill="#FFFFFF" transform="translate(544,476)"/>
<path d="M0 0 C3 1 3 1 3 1 Z " fill="#FFFFFF" transform="translate(91,476)"/>
<path d="M0 0 C3 1 3 1 3 1 Z " fill="#FFFFFF" transform="translate(540,475)"/>
<path d="M0 0 C3 1 3 1 3 1 Z " fill="#FFFFFF" transform="translate(94,475)"/>
<path d="M0 0 C3 1 3 1 3 1 Z " fill="#FFFFFF" transform="translate(98,474)"/>
<path d="M0 0 C3 1 3 1 3 1 Z " fill="#FFFFFF" transform="translate(533,473)"/>
<path d="M0 0 C3 1 3 1 3 1 Z " fill="#FFFFFF" transform="translate(101,473)"/>
<path d="M0 0 C3 1 3 1 3 1 Z " fill="#FFFFFF" transform="translate(529,472)"/>
<path d="M0 0 C3 1 3 1 3 1 Z " fill="#FFFFFF" transform="translate(104,472)"/>
<path d="M0 0 C3 1 3 1 3 1 Z " fill="#FFFFFF" transform="translate(522,470)"/>
<path d="M0 0 C3 1 3 1 3 1 Z " fill="#FFFFFF" transform="translate(111,470)"/>
<path d="M0 0 C3 1 3 1 3 1 Z " fill="#FFFFFF" transform="translate(114,469)"/>
<path d="M0 0 C3 1 3 1 3 1 Z " fill="#FFFFFF" transform="translate(515,468)"/>
<path d="M0 0 C3 1 3 1 3 1 Z " fill="#FFFFFF" transform="translate(117,468)"/>
<path d="M0 0 C3 1 3 1 3 1 Z " fill="#FFFFFF" transform="translate(511,467)"/>
<path d="M0 0 C3 1 3 1 3 1 Z " fill="#FFFFFF" transform="translate(121,467)"/>
<path d="M0 0 C3 1 3 1 3 1 Z " fill="#FFFFFF" transform="translate(124,466)"/>
<path d="M0 0 C3 1 3 1 3 1 Z " fill="#FFFFFF" transform="translate(504,465)"/>
<path d="M0 0 C3 1 3 1 3 1 Z " fill="#FFFFFF" transform="translate(127,465)"/>
<path d="M0 0 C3 1 3 1 3 1 Z " fill="#FFFFFF" transform="translate(500,464)"/>
<path d="M0 0 C3 1 3 1 3 1 Z " fill="#FFFFFF" transform="translate(131,464)"/>
<path d="M0 0 C3 1 3 1 3 1 Z " fill="#FFFFFF" transform="translate(493,462)"/>
<path d="M0 0 C3 1 3 1 3 1 Z " fill="#FFFFFF" transform="translate(486,460)"/>
<path d="M0 0 C3 1 3 1 3 1 Z " fill="#FFFFFF" transform="translate(482,459)"/>
<path d="M0 0 C3 1 3 1 3 1 Z " fill="#FFFFFF" transform="translate(475,457)"/>
<path d="M0 0 C3 1 3 1 3 1 Z " fill="#FFFFFF" transform="translate(471,456)"/>
<path d="" fill="#FDFDFD" transform="translate(0,0)"/>
<path d="" fill="#FEFDFC" transform="translate(0,0)"/>
<path d="M0 0 C3 1 3 1 3 1 Z " fill="#FEFDFC" transform="translate(85,400)"/>
<path d="" fill="#FEFDFD" transform="translate(0,0)"/>
<path d="" fill="#FEFDFC" transform="translate(0,0)"/>
<path d="" fill="#FDFDFC" transform="translate(0,0)"/>
<path d="" fill="#FEFEFC" transform="translate(0,0)"/>
<path d="" fill="#FEFDFC" transform="translate(0,0)"/>
<path d="" fill="#FEFDFC" transform="translate(0,0)"/>
<path d="M0 0 C3 1 3 1 3 1 Z " fill="#FEFDFA" transform="translate(65,345)"/>
<path d="M0 0 C3 1 3 1 3 1 Z " fill="#FEFDFB" transform="translate(61,344)"/>
<path d="M0 0 C3 1 3 1 3 1 Z " fill="#FEFDFC" transform="translate(58,343)"/>
<path d="M0 0 C3 1 3 1 3 1 Z " fill="#FEFDFC" transform="translate(55,342)"/>
<path d="M0 0 C3 1 3 1 3 1 Z " fill="#FEFDFC" transform="translate(50,340)"/>
<path d="M0 0 C3 1 3 1 3 1 Z " fill="#FEFDFB" transform="translate(80,315)"/>
<path d="M0 0 C3 1 3 1 3 1 Z " fill="#FEFDFC" transform="translate(83,314)"/>
<path d="" fill="#FEFDFC" transform="translate(0,0)"/>
<path d="" fill="#FEFCFB" transform="translate(0,0)"/>
<path d="" fill="#FDFDFC" transform="translate(0,0)"/>
<path d="" fill="#FEFDFC" transform="translate(0,0)"/>
<path d="" fill="#FEFDFC" transform="translate(0,0)"/>
<path d="" fill="#FEFDFC" transform="translate(0,0)"/>
<path d="" fill="#FEFDFC" transform="translate(0,0)"/>
<path d="" fill="#FEFCFB" transform="translate(0,0)"/>
<path d="" fill="#FEFCFB" transform="translate(0,0)"/>
<path d="" fill="#FEFDFC" transform="translate(0,0)"/>
<path d="" fill="#FEFDFC" transform="translate(0,0)"/>
<path d="" fill="#FDFDFC" transform="translate(0,0)"/>
<path d="" fill="#FEFDFC" transform="translate(0,0)"/>
<path d="" fill="#FDFDFC" transform="translate(0,0)"/>
<path d="" fill="#FEFEFD" transform="translate(0,0)"/>
<path d="" fill="#FEFDFC" transform="translate(0,0)"/>
<path d="" fill="#FDFDFD" transform="translate(0,0)"/>
<path d="" fill="#FEFEFD" transform="translate(0,0)"/>
<path d="M0 0 C3 1 3 1 3 1 Z " fill="#FEFDFC" transform="translate(374,10)"/>
<path d="M0 0 C3 1 3 1 3 1 Z " fill="#FEFDFB" transform="translate(366,7)"/>
<path d="M0 0 C3 1 3 1 3 1 Z " fill="#FEFDFB" transform="translate(359,5)"/>
<path d="M0 0 C3 1 3 1 3 1 Z " fill="#FEFDFB" transform="translate(250,5)"/>
<path d="M0 0 C3 1 3 1 3 1 Z " fill="#FEFCFB" transform="translate(253,4)"/>
<path d="M0 0 C3 1 3 1 3 1 Z " fill="#FEFDFB" transform="translate(256,3)"/>
<path d="M0 0 C3 1 3 1 3 1 Z " fill="#FEFCFA" transform="translate(260,2)"/>
<path d="M0 0 C2 1 2 1 2 1 Z " fill="#FFFFFF" transform="translate(602,638)"/>
<path d="M0 0 C2 1 2 1 2 1 Z " fill="#FFFFFF" transform="translate(34,638)"/>
<path d="M0 0 C2 1 2 1 2 1 Z " fill="#FFFFFF" transform="translate(604,637)"/>
<path d="M0 0 C2 1 2 1 2 1 Z " fill="#FFFFFF" transform="translate(32,637)"/>
<path d="M0 0 C2 1 2 1 2 1 Z " fill="#FFFFFF" transform="translate(30,636)"/>
<path d="M0 0 C2 1 2 1 2 1 Z " fill="#FFFFFF" transform="translate(608,635)"/>
<path d="M0 0 C2 1 2 1 2 1 Z " fill="#FFFFFF" transform="translate(610,634)"/>
<path d="M0 0 C2 1 2 1 2 1 Z " fill="#FFFFFF" transform="translate(25,633)"/>
<path d="M0 0 C2 1 2 1 2 1 Z " fill="#FFFFFF" transform="translate(613,632)"/>
<path d="M0 0 C2 1 2 1 2 1 Z " fill="#FFFFFF" transform="translate(21,630)"/>
<path d="M0 0 C2 1 2 1 2 1 Z " fill="#FFFFFF" transform="translate(617,629)"/>
<path d="M0 0 C2 1 2 1 2 1 Z " fill="#FFFFFF" transform="translate(17,627)"/>
<path d="M0 0 C2 1 2 1 2 1 Z " fill="#FFFFFF" transform="translate(622,625)"/>
<path d="M0 0 C2 1 2 1 2 1 Z " fill="#FFFFFF" transform="translate(628,620)"/>
<path d="M0 0 C2 1 2 1 2 1 Z " fill="#FFFFFF" transform="translate(634,615)"/>
<path d="" fill="#FFFFFF" transform="translate(0,0)"/>
<path d="" fill="#FFFFFF" transform="translate(0,0)"/>
<path d="" fill="#FFFFFF" transform="translate(0,0)"/>
<path d="" fill="#FFFFFF" transform="translate(0,0)"/>
<path d="" fill="#FFFFFF" transform="translate(0,0)"/>
<path d="" fill="#FFFFFF" transform="translate(0,0)"/>
<path d="" fill="#FFFFFF" transform="translate(0,0)"/>
<path d="" fill="#FFFFFF" transform="translate(0,0)"/>
<path d="" fill="#FFFFFF" transform="translate(0,0)"/>
<path d="" fill="#FFFFFF" transform="translate(0,0)"/>
<path d="" fill="#FFFFFF" transform="translate(0,0)"/>
<path d="" fill="#FFFFFF" transform="translate(0,0)"/>
<path d="" fill="#FFFFFF" transform="translate(0,0)"/>
<path d="" fill="#FFFFFF" transform="translate(0,0)"/>
<path d="" fill="#FFFFFF" transform="translate(0,0)"/>
<path d="" fill="#FFFFFF" transform="translate(0,0)"/>
<path d="" fill="#FFFFFF" transform="translate(0,0)"/>
<path d="" fill="#FFFFFF" transform="translate(0,0)"/>
<path d="" fill="#FFFFFF" transform="translate(0,0)"/>
<path d="" fill="#FFFFFF" transform="translate(0,0)"/>
<path d="" fill="#FFFFFF" transform="translate(0,0)"/>
<path d="" fill="#FFFFFF" transform="translate(0,0)"/>
<path d="" fill="#FFFFFF" transform="translate(0,0)"/>
<path d="" fill="#FFFFFF" transform="translate(0,0)"/>
<path d="" fill="#FFFFFF" transform="translate(0,0)"/>
<path d="" fill="#FFFFFF" transform="translate(0,0)"/>
<path d="" fill="#FFFFFF" transform="translate(0,0)"/>
<path d="" fill="#FFFFFF" transform="translate(0,0)"/>
<path d="" fill="#FFFFFF" transform="translate(0,0)"/>
<path d="" fill="#FFFFFF" transform="translate(0,0)"/>
<path d="" fill="#FFFFFF" transform="translate(0,0)"/>
<path d="" fill="#FFFFFF" transform="translate(0,0)"/>
<path d="" fill="#FFFFFF" transform="translate(0,0)"/>
<path d="" fill="#FFFFFF" transform="translate(0,0)"/>
<path d="" fill="#FFFFFF" transform="translate(0,0)"/>
<path d="" fill="#FFFFFF" transform="translate(0,0)"/>
<path d="" fill="#FFFFFF" transform="translate(0,0)"/>
<path d="" fill="#FFFFFF" transform="translate(0,0)"/>
<path d="M0 0 C2 1 2 1 2 1 Z " fill="#FFFFFF" transform="translate(57,491)"/>
<path d="M0 0 C2 1 2 1 2 1 Z " fill="#FFFFFF" transform="translate(573,490)"/>
<path d="M0 0 C2 1 2 1 2 1 Z " fill="#FFFFFF" transform="translate(60,489)"/>
<path d="M0 0 C2 1 2 1 2 1 Z " fill="#FFFFFF" transform="translate(569,487)"/>
<path d="M0 0 C2 1 2 1 2 1 Z " fill="#FFFFFF" transform="translate(63,487)"/>
<path d="M0 0 C2 1 2 1 2 1 Z " fill="#FFFFFF" transform="translate(566,485)"/>
<path d="M0 0 C2 1 2 1 2 1 Z " fill="#FFFFFF" transform="translate(68,484)"/>
<path d="M0 0 C2 1 2 1 2 1 Z " fill="#FFFFFF" transform="translate(563,483)"/>
<path d="M0 0 C2 1 2 1 2 1 Z " fill="#FFFFFF" transform="translate(70,483)"/>
<path d="M0 0 C2 1 2 1 2 1 Z " fill="#FFFFFF" transform="translate(561,482)"/>
<path d="M0 0 C2 1 2 1 2 1 Z " fill="#FFFFFF" transform="translate(72,482)"/>
<path d="M0 0 C2 1 2 1 2 1 Z " fill="#FFFFFF" transform="translate(559,481)"/>
<path d="M0 0 C2 1 2 1 2 1 Z " fill="#FFFFFF" transform="translate(557,480)"/>
<path d="M0 0 C2 1 2 1 2 1 Z " fill="#FFFFFF" transform="translate(554,479)"/>
<path d="M0 0 C2 1 2 1 2 1 Z " fill="#FEFEFC" transform="translate(133,461)"/>
<path d="M0 0 C2 1 2 1 2 1 Z " fill="#FEFEFC" transform="translate(131,460)"/>
<path d="M0 0 C2 1 2 1 2 1 Z " fill="#FEFEFC" transform="translate(127,458)"/>
<path d="M0 0 C2 1 2 1 2 1 Z " fill="#FEFEFC" transform="translate(125,457)"/>
<path d="M0 0 C2 1 2 1 2 1 Z " fill="#FEFEFC" transform="translate(123,456)"/>
<path d="M0 0 C2 1 2 1 2 1 Z " fill="#FEFEFC" transform="translate(121,455)"/>
<path d="M0 0 C2 1 2 1 2 1 Z " fill="#FEFEFD" transform="translate(119,454)"/>
<path d="M0 0 C2 1 2 1 2 1 Z " fill="#FEFDFC" transform="translate(117,453)"/>
<path d="" fill="#FEFEFE" transform="translate(0,0)"/>
<path d="M0 0 C2 1 2 1 2 1 Z " fill="#FFFEFD" transform="translate(112,450)"/>
<path d="M0 0 C2 1 2 1 2 1 Z " fill="#FFFEFD" transform="translate(109,448)"/>
<path d="M0 0 C2 1 2 1 2 1 Z " fill="#FFFEFE" transform="translate(105,445)"/>
<path d="" fill="#FEFEFE" transform="translate(0,0)"/>
<path d="M0 0 C2 1 2 1 2 1 Z " fill="#FEFEFE" transform="translate(100,441)"/>
<path d="" fill="#FEFDFD" transform="translate(0,0)"/>
<path d="" fill="#FEFEFE" transform="translate(0,0)"/>
<path d="" fill="#FEFEFD" transform="translate(0,0)"/>
<path d="" fill="#FEFEFD" transform="translate(0,0)"/>
<path d="" fill="#FEFEFD" transform="translate(0,0)"/>
<path d="" fill="#FEFEFD" transform="translate(0,0)"/>
<path d="" fill="#FEFEFD" transform="translate(0,0)"/>
<path d="" fill="#FEFEFD" transform="translate(0,0)"/>
<path d="M0 0 C2 1 2 1 2 1 Z " fill="#FEFEFC" transform="translate(109,417)"/>
<path d="M0 0 C2 1 2 1 2 1 Z " fill="#FEFEFD" transform="translate(111,416)"/>
<path d="" fill="#FEFDFD" transform="translate(0,0)"/>
<path d="" fill="#FEFEFE" transform="translate(0,0)"/>
<path d="" fill="#FEFDFD" transform="translate(0,0)"/>
<path d="" fill="#FEFDFC" transform="translate(0,0)"/>
<path d="" fill="#FEFDFC" transform="translate(0,0)"/>
<path d="" fill="#FEFDFC" transform="translate(0,0)"/>
<path d="" fill="#FEFDFC" transform="translate(0,0)"/>
<path d="M0 0 C2 1 2 1 2 1 Z " fill="#FEFDFA" transform="translate(83,399)"/>
<path d="M0 0 C2 1 2 1 2 1 Z " fill="#FEFDFC" transform="translate(81,398)"/>
<path d="M0 0 C2 1 2 1 2 1 Z " fill="#FFFEFD" transform="translate(79,397)"/>
<path d="M0 0 C2 1 2 1 2 1 Z " fill="#FEFEFD" transform="translate(76,395)"/>
<path d="" fill="#FEFDFC" transform="translate(0,0)"/>
<path d="M0 0 C2 1 2 1 2 1 Z " fill="#FEFEFE" transform="translate(72,392)"/>
<path d="" fill="#FEFEFD" transform="translate(0,0)"/>
<path d="" fill="#FEFEFE" transform="translate(0,0)"/>
<path d="" fill="#FEFEFC" transform="translate(0,0)"/>
<path d="" fill="#FEFDFD" transform="translate(0,0)"/>
<path d="M0 0 C2 1 2 1 2 1 Z " fill="#FEFDFB" transform="translate(53,341)"/>
<path d="M0 0 C2 1 2 1 2 1 Z " fill="#FEFEFB" transform="translate(48,339)"/>
<path d="M0 0 C2 1 2 1 2 1 Z " fill="#FEFEFC" transform="translate(46,338)"/>
<path d="M0 0 C2 1 2 1 2 1 Z " fill="#FEFDFC" transform="translate(43,337)"/>
<path d="M0 0 C2 1 2 1 2 1 Z " fill="#FEFEFB" transform="translate(41,336)"/>
<path d="M0 0 C2 1 2 1 2 1 Z " fill="#FEFDFC" transform="translate(39,335)"/>
<path d="M0 0 C2 1 2 1 2 1 Z " fill="#FEFDFC" transform="translate(37,334)"/>
<path d="M0 0 C2 1 2 1 2 1 Z " fill="#FEFDFC" transform="translate(35,333)"/>
<path d="M0 0 C2 1 2 1 2 1 Z " fill="#FEFDFC" transform="translate(33,332)"/>
<path d="M0 0 C2 1 2 1 2 1 Z " fill="#FFFEFC" transform="translate(31,331)"/>
<path d="M0 0 C2 1 2 1 2 1 Z " fill="#FEFEFD" transform="translate(26,328)"/>
<path d="M0 0 C2 1 2 1 2 1 Z " fill="#FEFDFC" transform="translate(24,327)"/>
<path d="" fill="#FFFEFE" transform="translate(0,0)"/>
<path d="M0 0 C2 1 2 1 2 1 Z " fill="#FEFDFA" transform="translate(86,313)"/>
<path d="M0 0 C2 1 2 1 2 1 Z " fill="#FEFDFB" transform="translate(89,312)"/>
<path d="M0 0 C2 1 2 1 2 1 Z " fill="#FEFCFB" transform="translate(91,311)"/>
<path d="M0 0 C2 1 2 1 2 1 Z " fill="#FEFEFC" transform="translate(96,309)"/>
<path d="M0 0 C2 1 2 1 2 1 Z " fill="#FFFEFC" transform="translate(99,307)"/>
<path d="M0 0 C2 1 2 1 2 1 Z " fill="#FEFEFC" transform="translate(101,306)"/>
<path d="M0 0 C2 1 2 1 2 1 Z " fill="#FFFEFE" transform="translate(107,302)"/>
<path d="" fill="#FEFEFD" transform="translate(0,0)"/>
<path d="" fill="#FEFEFE" transform="translate(0,0)"/>
<path d="" fill="#FEFEFD" transform="translate(0,0)"/>
<path d="" fill="#FEFEFD" transform="translate(0,0)"/>
<path d="" fill="#FEFDFD" transform="translate(0,0)"/>
<path d="" fill="#FEFDFC" transform="translate(0,0)"/>
<path d="" fill="#FEFDFC" transform="translate(0,0)"/>
<path d="" fill="#FEFDFC" transform="translate(0,0)"/>
<path d="" fill="#FEFDFC" transform="translate(0,0)"/>
<path d="" fill="#FEFDFC" transform="translate(0,0)"/>
<path d="" fill="#FEFDFD" transform="translate(0,0)"/>
<path d="" fill="#FEFDFC" transform="translate(0,0)"/>
<path d="" fill="#FEFDFC" transform="translate(0,0)"/>
<path d="" fill="#FEFDFC" transform="translate(0,0)"/>
<path d="" fill="#FEFDFC" transform="translate(0,0)"/>
<path d="" fill="#FDFDFC" transform="translate(0,0)"/>
<path d="" fill="#FEFDFC" transform="translate(0,0)"/>
<path d="" fill="#FEFDFD" transform="translate(0,0)"/>
<path d="" fill="#FEFDFC" transform="translate(0,0)"/>
<path d="" fill="#FEFDFD" transform="translate(0,0)"/>
<path d="" fill="#FEFDFC" transform="translate(0,0)"/>
<path d="" fill="#FEFCFB" transform="translate(0,0)"/>
<path d="" fill="#FEFDFD" transform="translate(0,0)"/>
<path d="" fill="#FEFDFD" transform="translate(0,0)"/>
<path d="" fill="#FEFDFC" transform="translate(0,0)"/>
<path d="" fill="#FEFDFD" transform="translate(0,0)"/>
<path d="" fill="#FEFDFD" transform="translate(0,0)"/>
<path d="" fill="#FEFDFD" transform="translate(0,0)"/>
<path d="" fill="#FEFDFC" transform="translate(0,0)"/>
<path d="" fill="#FEFEFD" transform="translate(0,0)"/>
<path d="" fill="#FEFEFD" transform="translate(0,0)"/>
<path d="" fill="#FEFDFC" transform="translate(0,0)"/>
<path d="" fill="#FEFDFC" transform="translate(0,0)"/>
<path d="" fill="#FEFDFD" transform="translate(0,0)"/>
<path d="" fill="#FEFDFD" transform="translate(0,0)"/>
<path d="" fill="#FEFEFD" transform="translate(0,0)"/>
<path d="" fill="#FEFEFE" transform="translate(0,0)"/>
<path d="" fill="#FEFDFD" transform="translate(0,0)"/>
<path d="" fill="#FEFEFE" transform="translate(0,0)"/>
<path d="" fill="#FEFEFD" transform="translate(0,0)"/>
<path d="" fill="#FEFEFD" transform="translate(0,0)"/>
<path d="" fill="#FEFEFE" transform="translate(0,0)"/>
<path d="" fill="#FEFEFE" transform="translate(0,0)"/>
<path d="" fill="#FEFEFE" transform="translate(0,0)"/>
<path d="" fill="#FEFEFD" transform="translate(0,0)"/>
<path d="" fill="#FEFEFE" transform="translate(0,0)"/>
<path d="" fill="#FEFEFE" transform="translate(0,0)"/>
<path d="M0 0 C2 1 2 1 2 1 Z " fill="#FFFEFE" transform="translate(417,34)"/>
<path d="M0 0 C2 1 2 1 2 1 Z " fill="#FEFEFD" transform="translate(413,31)"/>
<path d="M0 0 C2 1 2 1 2 1 Z " fill="#FEFEFD" transform="translate(410,29)"/>
<path d="M0 0 C2 1 2 1 2 1 Z " fill="#FFFEFD" transform="translate(406,26)"/>
<path d="M0 0 C2 1 2 1 2 1 Z " fill="#FEFEFD" transform="translate(404,25)"/>
<path d="M0 0 C2 1 2 1 2 1 Z " fill="#FEFEFD" transform="translate(214,25)"/>
<path d="M0 0 C2 1 2 1 2 1 Z " fill="#FEFEFD" transform="translate(401,23)"/>
<path d="M0 0 C2 1 2 1 2 1 Z " fill="#FEFEFD" transform="translate(218,22)"/>
<path d="M0 0 C2 1 2 1 2 1 Z " fill="#FEFEFC" transform="translate(398,21)"/>
<path d="M0 0 C2 1 2 1 2 1 Z " fill="#FEFDFC" transform="translate(396,20)"/>
<path d="M0 0 C2 1 2 1 2 1 Z " fill="#FEFEFC" transform="translate(394,19)"/>
<path d="M0 0 C2 1 2 1 2 1 Z " fill="#FEFEFC" transform="translate(392,18)"/>
<path d="M0 0 C2 1 2 1 2 1 Z " fill="#FEFEFC" transform="translate(390,17)"/>
<path d="M0 0 C2 1 2 1 2 1 Z " fill="#FEFEFC" transform="translate(225,17)"/>
<path d="M0 0 C2 1 2 1 2 1 Z " fill="#FEFEFD" transform="translate(227,16)"/>
<path d="M0 0 C2 1 2 1 2 1 Z " fill="#FEFEFC" transform="translate(386,15)"/>
<path d="M0 0 C2 1 2 1 2 1 Z " fill="#FEFEFC" transform="translate(384,14)"/>
<path d="M0 0 C2 1 2 1 2 1 Z " fill="#FEFDFB" transform="translate(382,13)"/>
<path d="M0 0 C2 1 2 1 2 1 Z " fill="#FEFEFD" transform="translate(232,13)"/>
<path d="M0 0 C2 1 2 1 2 1 Z " fill="#FEFDFB" transform="translate(380,12)"/>
<path d="M0 0 C2 1 2 1 2 1 Z " fill="#FEFDFB" transform="translate(234,12)"/>
<path d="M0 0 C2 1 2 1 2 1 Z " fill="#FEFEFC" transform="translate(377,11)"/>
<path d="M0 0 C2 1 2 1 2 1 Z " fill="#FEFDFB" transform="translate(236,11)"/>
<path d="M0 0 C2 1 2 1 2 1 Z " fill="#FEFDFB" transform="translate(238,10)"/>
<path d="M0 0 C2 1 2 1 2 1 Z " fill="#FEFDFB" transform="translate(372,9)"/>
<path d="M0 0 C2 1 2 1 2 1 Z " fill="#FEFDFC" transform="translate(240,9)"/>
<path d="M0 0 C2 1 2 1 2 1 Z " fill="#FEFDFB" transform="translate(369,8)"/>
<path d="M0 0 C2 1 2 1 2 1 Z " fill="#FEFEFC" transform="translate(243,8)"/>
<path d="M0 0 C2 1 2 1 2 1 Z " fill="#FEFDFB" transform="translate(245,7)"/>
<path d="M0 0 C2 1 2 1 2 1 Z " fill="#FEFDFB" transform="translate(363,6)"/>
<path d="M0 0 C2 1 2 1 2 1 Z " fill="#FEFDFB" transform="translate(248,6)"/>
<path d="" fill="#FFFFFF" transform="translate(0,0)"/>
<path d="" fill="#FFFFFF" transform="translate(0,0)"/>
<path d="" fill="#FFFFFF" transform="translate(0,0)"/>
<path d="" fill="#FFFFFF" transform="translate(0,0)"/>
<path d="" fill="#FFFFFF" transform="translate(0,0)"/>
<path d="" fill="#FFFFFF" transform="translate(0,0)"/>
<path d="" fill="#FFFFFF" transform="translate(0,0)"/>
<path d="" fill="#FFFFFF" transform="translate(0,0)"/>
<path d="" fill="#FFFFFF" transform="translate(0,0)"/>
<path d="" fill="#FFFFFF" transform="translate(0,0)"/>
<path d="" fill="#FFFFFF" transform="translate(0,0)"/>
<path d="" fill="#FFFFFF" transform="translate(0,0)"/>
<path d="" fill="#FFFFFF" transform="translate(0,0)"/>
<path d="" fill="#FFFFFF" transform="translate(0,0)"/>
<path d="" fill="#FFFFFF" transform="translate(0,0)"/>
<path d="" fill="#FFFFFF" transform="translate(0,0)"/>
<path d="" fill="#FFFFFF" transform="translate(0,0)"/>
<path d="" fill="#FFFFFF" transform="translate(0,0)"/>
<path d="" fill="#FFFFFF" transform="translate(0,0)"/>
<path d="" fill="#FFFFFF" transform="translate(0,0)"/>
<path d="" fill="#FFFFFF" transform="translate(0,0)"/>
<path d="" fill="#FFFFFF" transform="translate(0,0)"/>
<path d="" fill="#FFFFFF" transform="translate(0,0)"/>
<path d="" fill="#FFFFFF" transform="translate(0,0)"/>
<path d="" fill="#FFFFFF" transform="translate(0,0)"/>
<path d="" fill="#FFFFFF" transform="translate(0,0)"/>
<path d="" fill="#FFFFFF" transform="translate(0,0)"/>
<path d="" fill="#FFFFFF" transform="translate(0,0)"/>
<path d="" fill="#FFFFFF" transform="translate(0,0)"/>
<path d="" fill="#FFFFFF" transform="translate(0,0)"/>
<path d="" fill="#FFFFFF" transform="translate(0,0)"/>
<path d="" fill="#FFFFFF" transform="translate(0,0)"/>
<path d="" fill="#FFFFFF" transform="translate(0,0)"/>
<path d="" fill="#FFFFFF" transform="translate(0,0)"/>
<path d="" fill="#FFFFFF" transform="translate(0,0)"/>
<path d="" fill="#FFFFFF" transform="translate(0,0)"/>
<path d="" fill="#FFFFFF" transform="translate(0,0)"/>
<path d="" fill="#FFFFFF" transform="translate(0,0)"/>
<path d="" fill="#FFFFFF" transform="translate(0,0)"/>
<path d="" fill="#FFFFFF" transform="translate(0,0)"/>
<path d="" fill="#FFFFFF" transform="translate(0,0)"/>
<path d="" fill="#FFFFFF" transform="translate(0,0)"/>
<path d="" fill="#FFFFFF" transform="translate(0,0)"/>
<path d="" fill="#FFFFFF" transform="translate(0,0)"/>
<path d="" fill="#FFFFFF" transform="translate(0,0)"/>
<path d="" fill="#FFFFFF" transform="translate(0,0)"/>
<path d="" fill="#FFFFFF" transform="translate(0,0)"/>
<path d="" fill="#FFFFFF" transform="translate(0,0)"/>
<path d="" fill="#FFFFFF" transform="translate(0,0)"/>
<path d="" fill="#FFFFFF" transform="translate(0,0)"/>
<path d="" fill="#FFFFFF" transform="translate(0,0)"/>
<path d="" fill="#FFFFFF" transform="translate(0,0)"/>
<path d="" fill="#FFFFFF" transform="translate(0,0)"/>
<path d="" fill="#FFFFFF" transform="translate(0,0)"/>
<path d="" fill="#FFFFFF" transform="translate(0,0)"/>
<path d="" fill="#FFFFFF" transform="translate(0,0)"/>
<path d="" fill="#FFFFFF" transform="translate(0,0)"/>
<path d="" fill="#FFFFFF" transform="translate(0,0)"/>
<path d="" fill="#FFFFFF" transform="translate(0,0)"/>
<path d="" fill="#FFFFFF" transform="translate(0,0)"/>
<path d="" fill="#FFFFFF" transform="translate(0,0)"/>
<path d="" fill="#FFFFFF" transform="translate(0,0)"/>
<path d="" fill="#FFFFFF" transform="translate(0,0)"/>
<path d="" fill="#FFFFFF" transform="translate(0,0)"/>
<path d="" fill="#FFFFFF" transform="translate(0,0)"/>
<path d="" fill="#FFFFFF" transform="translate(0,0)"/>
<path d="" fill="#FFFFFF" transform="translate(0,0)"/>
<path d="" fill="#FFFFFF" transform="translate(0,0)"/>
<path d="" fill="#FFFFFF" transform="translate(0,0)"/>
<path d="" fill="#FFFFFF" transform="translate(0,0)"/>
<path d="" fill="#FFFFFF" transform="translate(0,0)"/>
<path d="" fill="#FFFFFF" transform="translate(0,0)"/>
<path d="" fill="#FFFFFF" transform="translate(0,0)"/>
<path d="" fill="#FFFFFF" transform="translate(0,0)"/>
<path d="" fill="#FFFFFF" transform="translate(0,0)"/>
<path d="" fill="#FFFFFF" transform="translate(0,0)"/>
<path d="" fill="#FFFFFF" transform="translate(0,0)"/>
<path d="" fill="#FFFFFF" transform="translate(0,0)"/>
<path d="" fill="#FFFFFF" transform="translate(0,0)"/>
<path d="" fill="#FFFFFF" transform="translate(0,0)"/>
<path d="" fill="#FFFFFF" transform="translate(0,0)"/>
<path d="" fill="#FFFFFF" transform="translate(0,0)"/>
<path d="" fill="#FFFFFF" transform="translate(0,0)"/>
<path d="" fill="#FFFFFF" transform="translate(0,0)"/>
<path d="" fill="#FFFFFF" transform="translate(0,0)"/>
<path d="" fill="#FFFFFF" transform="translate(0,0)"/>
<path d="" fill="#FFFFFF" transform="translate(0,0)"/>
<path d="" fill="#FFFFFF" transform="translate(0,0)"/>
<path d="" fill="#FFFFFF" transform="translate(0,0)"/>
<path d="" fill="#FFFFFF" transform="translate(0,0)"/>
<path d="" fill="#FFFFFF" transform="translate(0,0)"/>
<path d="" fill="#FFFFFF" transform="translate(0,0)"/>
<path d="" fill="#FFFFFF" transform="translate(0,0)"/>
<path d="" fill="#FFFFFF" transform="translate(0,0)"/>
<path d="" fill="#FFFFFF" transform="translate(0,0)"/>
<path d="" fill="#FFFFFF" transform="translate(0,0)"/>
<path d="" fill="#FFFFFF" transform="translate(0,0)"/>
<path d="" fill="#FFFFFF" transform="translate(0,0)"/>
<path d="" fill="#FFFFFF" transform="translate(0,0)"/>
<path d="" fill="#FFFFFF" transform="translate(0,0)"/>
<path d="" fill="#FFFFFF" transform="translate(0,0)"/>
<path d="" fill="#FFFFFF" transform="translate(0,0)"/>
<path d="" fill="#FFFFFF" transform="translate(0,0)"/>
<path d="" fill="#FFFFFF" transform="translate(0,0)"/>
<path d="" fill="#FFFFFF" transform="translate(0,0)"/>
<path d="" fill="#FFFFFF" transform="translate(0,0)"/>
<path d="" fill="#FFFFFF" transform="translate(0,0)"/>
<path d="" fill="#FFFFFF" transform="translate(0,0)"/>
<path d="" fill="#FFFFFF" transform="translate(0,0)"/>
<path d="" fill="#FFFFFF" transform="translate(0,0)"/>
<path d="" fill="#FFFFFF" transform="translate(0,0)"/>
<path d="" fill="#FFFFFF" transform="translate(0,0)"/>
<path d="" fill="#FFFFFF" transform="translate(0,0)"/>
<path d="" fill="#FEFDFA" transform="translate(0,0)"/>
<path d="" fill="#FFFEFD" transform="translate(0,0)"/>
<path d="" fill="#FFFEFD" transform="translate(0,0)"/>
<path d="" fill="#FFFEFC" transform="translate(0,0)"/>
<path d="" fill="#FEFCFB" transform="translate(0,0)"/>
<path d="" fill="#FEFDFB" transform="translate(0,0)"/>
<path d="" fill="#FEFDFB" transform="translate(0,0)"/>
<path d="" fill="#FFFFFF" transform="translate(0,0)"/>
<path d="" fill="#FFFFFF" transform="translate(0,0)"/>
<path d="" fill="#FEFDFC" transform="translate(0,0)"/>
<path d="" fill="#FEFEFC" transform="translate(0,0)"/>
<path d="" fill="#FFFEFD" transform="translate(0,0)"/>
<path d="" fill="#FEFDFC" transform="translate(0,0)"/>
<path d="" fill="#FEFDFB" transform="translate(0,0)"/>
<path d="" fill="#FFFFFF" transform="translate(0,0)"/>
<path d="" fill="#FFFEFC" transform="translate(0,0)"/>
<path d="" fill="#FEFEFC" transform="translate(0,0)"/>
<path d="" fill="#FFFEFE" transform="translate(0,0)"/>
<path d="" fill="#FEFEFE" transform="translate(0,0)"/>
<path d="" fill="#FDFDFB" transform="translate(0,0)"/>
<path d="" fill="#FEFDFB" transform="translate(0,0)"/>
<path d="" fill="#FEFDFC" transform="translate(0,0)"/>
<path d="" fill="#FFFEFC" transform="translate(0,0)"/>
<path d="" fill="#FFFEFD" transform="translate(0,0)"/>
<path d="" fill="#FFFEFE" transform="translate(0,0)"/>
<path d="" fill="#FFFDFC" transform="translate(0,0)"/>
<path d="" fill="#FFFDFC" transform="translate(0,0)"/>
<path d="" fill="#FFFEFD" transform="translate(0,0)"/>
<path d="" fill="#FEFEFC" transform="translate(0,0)"/>
<path d="" fill="#FEFCFB" transform="translate(0,0)"/>
<path d="" fill="#FEFDFC" transform="translate(0,0)"/>
<path d="" fill="#FEFEFE" transform="translate(0,0)"/>
<path d="" fill="#FFFFFF" transform="translate(0,0)"/>
<path d="" fill="#FEFDFB" transform="translate(0,0)"/>
<path d="" fill="#FFFFFF" transform="translate(0,0)"/>
<path d="" fill="#FFFEFE" transform="translate(0,0)"/>
<path d="" fill="#FEFFFE" transform="translate(0,0)"/>
<path d="" fill="#FEFDFB" transform="translate(0,0)"/>
<path d="" fill="#FEFEFD" transform="translate(0,0)"/>
<path d="" fill="#FFFFFF" transform="translate(0,0)"/>
<path d="" fill="#FEFDFD" transform="translate(0,0)"/>
<path d="" fill="#FEFEFC" transform="translate(0,0)"/>
<path d="" fill="#FFFEFE" transform="translate(0,0)"/>
<path d="" fill="#FFFFFF" transform="translate(0,0)"/>
<path d="" fill="#FEFCFB" transform="translate(0,0)"/>
<path d="" fill="#FEFDFB" transform="translate(0,0)"/>
<path d="" fill="#FFFEFC" transform="translate(0,0)"/>
<path d="" fill="#FFFFFF" transform="translate(0,0)"/>
<path d="" fill="#FEFDFC" transform="translate(0,0)"/>
<path d="" fill="#FEFDFC" transform="translate(0,0)"/>
<path d="" fill="#FEFDFC" transform="translate(0,0)"/>
<path d="" fill="#FEFDFC" transform="translate(0,0)"/>
<path d="" fill="#FEFDFC" transform="translate(0,0)"/>
<path d="" fill="#FEFEFD" transform="translate(0,0)"/>
<path d="" fill="#FFFFFF" transform="translate(0,0)"/>
<path d="" fill="#FFFEFC" transform="translate(0,0)"/>
<path d="" fill="#FFFEFC" transform="translate(0,0)"/>
<path d="" fill="#FEFDFB" transform="translate(0,0)"/>
<path d="" fill="#FEFDFB" transform="translate(0,0)"/>
<path d="" fill="#FEFDFC" transform="translate(0,0)"/>
<path d="" fill="#FFFFFF" transform="translate(0,0)"/>
<path d="" fill="#FEFDFB" transform="translate(0,0)"/>
<path d="" fill="#FEFDFB" transform="translate(0,0)"/>
<path d="" fill="#FEFDFB" transform="translate(0,0)"/>
<path d="" fill="#FEFDFB" transform="translate(0,0)"/>
<path d="" fill="#FEFDFB" transform="translate(0,0)"/>
<path d="" fill="#FFFFFE" transform="translate(0,0)"/>
<path d="" fill="#FEFDFB" transform="translate(0,0)"/>
<path d="" fill="#FFFDFC" transform="translate(0,0)"/>
<path d="" fill="#FFFEFD" transform="translate(0,0)"/>
<path d="" fill="#FEFDFB" transform="translate(0,0)"/>
<path d="" fill="#FEFDFC" transform="translate(0,0)"/>
<path d="" fill="#FEFDFC" transform="translate(0,0)"/>
<path d="" fill="#FEFDFC" transform="translate(0,0)"/>
<path d="" fill="#FEFDFB" transform="translate(0,0)"/>
<path d="" fill="#FFFEFC" transform="translate(0,0)"/>
<path d="" fill="#FEFDFC" transform="translate(0,0)"/>
<path d="" fill="#FFFFFF" transform="translate(0,0)"/>
<path d="" fill="#FEFDFC" transform="translate(0,0)"/>
<path d="" fill="#FFFEFE" transform="translate(0,0)"/>
<path d="" fill="#FEFEFD" transform="translate(0,0)"/>
<path d="" fill="#FEFDFB" transform="translate(0,0)"/>
<path d="" fill="#FEFDFC" transform="translate(0,0)"/>
<path d="" fill="#FFFEFE" transform="translate(0,0)"/>
<path d="" fill="#FEFDFB" transform="translate(0,0)"/>
<path d="" fill="#FEFDFB" transform="translate(0,0)"/>
<path d="" fill="#FEFEFD" transform="translate(0,0)"/>
<path d="" fill="#FEFDFB" transform="translate(0,0)"/>
<path d="" fill="#FEFDFC" transform="translate(0,0)"/>
<path d="" fill="#FEFDFB" transform="translate(0,0)"/>
<path d="" fill="#FFFEFD" transform="translate(0,0)"/>
<path d="" fill="#FEFDFB" transform="translate(0,0)"/>
<path d="" fill="#FEFDFC" transform="translate(0,0)"/>
<path d="" fill="#FFFFFF" transform="translate(0,0)"/>
<path d="" fill="#FEFDFB" transform="translate(0,0)"/>
<path d="" fill="#FEFDFC" transform="translate(0,0)"/>
<path d="" fill="#FEFDFC" transform="translate(0,0)"/>
<path d="" fill="#FFFEFE" transform="translate(0,0)"/>
<path d="" fill="#FEFDFC" transform="translate(0,0)"/>
<path d="" fill="#FFFFFF" transform="translate(0,0)"/>
<path d="" fill="#FEFDFC" transform="translate(0,0)"/>
<path d="" fill="#FEFDFC" transform="translate(0,0)"/>
<path d="" fill="#FDFDFB" transform="translate(0,0)"/>
<path d="" fill="#FFFFFE" transform="translate(0,0)"/>
<path d="" fill="#FEFDFC" transform="translate(0,0)"/>
<path d="" fill="#FEFDFC" transform="translate(0,0)"/>
<path d="" fill="#FDFDFB" transform="translate(0,0)"/>
<path d="" fill="#FEFEFD" transform="translate(0,0)"/>
<path d="" fill="#FFFFFE" transform="translate(0,0)"/>
<path d="" fill="#FFFFFF" transform="translate(0,0)"/>
<path d="" fill="#FDFDFB" transform="translate(0,0)"/>
<path d="" fill="#FEFEFD" transform="translate(0,0)"/>
<path d="" fill="#FEFDFB" transform="translate(0,0)"/>
<path d="" fill="#FFFEFD" transform="translate(0,0)"/>
<path d="" fill="#FEFDFC" transform="translate(0,0)"/>
<path d="" fill="#FFFEFD" transform="translate(0,0)"/>
<path d="" fill="#FFFFFF" transform="translate(0,0)"/>
<path d="" fill="#FDFDFA" transform="translate(0,0)"/>
<path d="" fill="#FFFFFE" transform="translate(0,0)"/>
<path d="" fill="#FEFDFC" transform="translate(0,0)"/>
<path d="" fill="#FFFFFF" transform="translate(0,0)"/>
<path d="" fill="#FDFDFB" transform="translate(0,0)"/>
<path d="" fill="#FFFFFF" transform="translate(0,0)"/>
<path d="" fill="#FFFFFE" transform="translate(0,0)"/>
<path d="" fill="#FFFFFF" transform="translate(0,0)"/>
<path d="" fill="#FFFFFF" transform="translate(0,0)"/>
<path d="" fill="#FEFEFD" transform="translate(0,0)"/>
<path d="" fill="#FFFFFF" transform="translate(0,0)"/>
<path d="" fill="#FEFDFC" transform="translate(0,0)"/>
<path d="" fill="#FFFFFF" transform="translate(0,0)"/>
<path d="" fill="#FDFDFB" transform="translate(0,0)"/>
<path d="" fill="#FFFFFF" transform="translate(0,0)"/>
<path d="" fill="#FFFFFE" transform="translate(0,0)"/>
<path d="" fill="#FFFFFF" transform="translate(0,0)"/>
<path d="" fill="#FFFFFF" transform="translate(0,0)"/>
<path d="" fill="#FFFEFD" transform="translate(0,0)"/>
<path d="" fill="#FDFDFA" transform="translate(0,0)"/>
<path d="" fill="#FFFEFD" transform="translate(0,0)"/>
<path d="" fill="#FEFDFB" transform="translate(0,0)"/>
<path d="" fill="#FEFEFC" transform="translate(0,0)"/>
<path d="" fill="#FEFDFC" transform="translate(0,0)"/>
<path d="" fill="#FEFDFB" transform="translate(0,0)"/>
<path d="" fill="#FFFEFE" transform="translate(0,0)"/>
<path d="" fill="#FFFEFD" transform="translate(0,0)"/>
<path d="" fill="#FFFDFB" transform="translate(0,0)"/>
<path d="" fill="#FFFFFF" transform="translate(0,0)"/>
<path d="" fill="#FFFDFB" transform="translate(0,0)"/>
<path d="" fill="#FFFDFC" transform="translate(0,0)"/>
<path d="" fill="#FFFDFB" transform="translate(0,0)"/>
<path d="" fill="#FFFDFB" transform="translate(0,0)"/>
<path d="" fill="#FFFDFB" transform="translate(0,0)"/>
<path d="" fill="#FEFDFC" transform="translate(0,0)"/>
<path d="" fill="#FFFDFB" transform="translate(0,0)"/>
<path d="" fill="#FFFDFB" transform="translate(0,0)"/>
<path d="" fill="#FFFFFD" transform="translate(0,0)"/>
<path d="" fill="#FFFDFB" transform="translate(0,0)"/>
<path d="" fill="#FEFEFC" transform="translate(0,0)"/>
<path d="" fill="#FFFEFD" transform="translate(0,0)"/>
<path d="" fill="#FEFDFB" transform="translate(0,0)"/>
<path d="" fill="#FFFEFD" transform="translate(0,0)"/>
<path d="" fill="#FEFDFC" transform="translate(0,0)"/>
<path d="" fill="#FFFFFF" transform="translate(0,0)"/>
<path d="" fill="#FFFFFD" transform="translate(0,0)"/>
<path d="" fill="#FFFEFE" transform="translate(0,0)"/>
<path d="" fill="#FEFDFB" transform="translate(0,0)"/>
<path d="" fill="#FFFEFD" transform="translate(0,0)"/>
<path d="" fill="#FEFEFC" transform="translate(0,0)"/>
<path d="" fill="#FEFEFC" transform="translate(0,0)"/>
<path d="" fill="#FFFFFD" transform="translate(0,0)"/>
<path d="" fill="#FEFEFA" transform="translate(0,0)"/>
<path d="" fill="#FEFDFB" transform="translate(0,0)"/>
<path d="" fill="#FFFFFE" transform="translate(0,0)"/>
<path d="" fill="#FEFDFB" transform="translate(0,0)"/>
<path d="" fill="#FFFFFD" transform="translate(0,0)"/>
<path d="" fill="#FEFDFB" transform="translate(0,0)"/>
<path d="" fill="#FEFDFA" transform="translate(0,0)"/>
<path d="" fill="#FEFDFB" transform="translate(0,0)"/>
<path d="" fill="#FEFDFB" transform="translate(0,0)"/>
</svg>
